<svg width="50" height="50" viewBox="0 0 50 50" fill="none" xmlns="http://www.w3.org/2000/svg">
<path d="M9.38745 7.41919C12.2263 10.2581 12.5812 11.3226 9.38745 14.5164C8.01557 15.8882 6.85589 14.8237 5.48401 13.4518C4.11213 12.0799 3 10.9678 5.48401 8.48376C6.85589 7.11188 8.32288 6.35461 9.38745 7.41919Z" fill="#fff"/>
<path d="M38.9451 23.4058C40.0697 24.5304 40.0026 25.1598 39.2262 25.9361C37.8205 27.3418 37.3331 26.8499 36.6581 26.1942C35.7563 25.3181 35.0092 24.5304 36.4148 23.1247C37.1912 22.3484 37.8206 22.2813 38.9451 23.4058Z" fill="#fff"/>
<path d="M18 12C26.7309 10.5235 36.4419 29.1035 40 37.0003C31.7767 23.0602 22.409 23.9662 18.5873 26.1851C18.8509 27.8819 17.7419 31.5183 12.5233 32.3014C7.30465 33.0846 6 29.4951 6 27.6025C6 22.8895 9.89535 13.3706 18 12Z" fill="#fff"/>
<path d="M35.499 12C40.6491 11.9999 44.9991 24 46.9991 28C35.999 15 34 22 32.999 21C32.3027 20.3043 30.9364 18.0688 30.0589 17.0388C29.5392 16.4289 32.552 12.0001 35.499 12Z" fill="#fff"/>
<path d="M21.405 39.1204C24.9902 40.3548 29.5 41 36 34C24.2146 40.5578 19.5355 28.7666 19 30.0002C18.1663 31.9212 15.5396 33.1451 14 33.5002C12.0395 33.9525 17.8199 37.886 21.405 39.1204Z" fill="#fff"/>
</svg>
