<?xml version="1.0" encoding="utf-8"?>
<!-- Generator: Adobe Illustrator 27.5.0, SVG Export Plug-In . SVG Version: 6.00 Build 0)  -->
<svg version="1.1" id="Layer_1" xmlns="http://www.w3.org/2000/svg" xmlns:xlink="http://www.w3.org/1999/xlink" x="0px" y="0px"
	 viewBox="0 0 3000 2000" style="enable-background:new 0 0 3000 2000;" xml:space="preserve">
<g>
	<g>
		<path style="fill:#EBF2F9;" d="M349.701,1580.346c0-8.395,0.192-16.926,0.48-25.587c0.671-21.458,1.727-43.579,3.453-66.368
			c1.247-16.659,2.782-33.584,4.7-50.777c32.136-293.729,166.23-579.022,509.268-530.378
			c550.53,77.964,672.959-785.192,1244.182-267.537c106.637,96.637,226.213,124.633,373.079,217.257
			c137.081,86.359,235.983,307.321,219.483,580.659c-0.959,16.793-2.398,33.719-4.317,50.777
			c-2.302,21.855-5.468,43.845-9.305,66.368c-3.741,21.323-8.154,42.913-13.334,64.503
			c-15.061,63.438-36.452,128.606-64.847,194.708c-0.575,1.2-1.055,2.397-1.534,3.599H385.195c-0.096,0-0.096,0-0.191,0
			c-17.939-6.797-33.671-99.286-35.302-228.824C349.701,1585.944,349.605,1583.145,349.701,1580.346z"/>
		<path style="fill:#F8FCFF;" d="M1094.395,1285.106c103.578-45,243.438-20.882,243.438-20.882
			c131.573-97.336,254.957,14.974,254.957,14.974c84.986-7.486,120.525,59.896,120.525,59.896l-710.789,7.486
			C1002.526,1346.581,1025.336,1315.108,1094.395,1285.106z"/>
		<g>
			<path style="fill:#F8FCFF;" d="M2087.771,1052.498c157.286-100.087,304.783,15.397,304.783,15.397
				c101.594-7.698,144.079,61.59,144.079,61.59l-849.698,7.699c0,0,27.267-32.363,109.821-63.214
				C1920.577,1027.699,2087.771,1052.498,2087.771,1052.498z"/>
			<path style="fill:#F8FCFF;" d="M1383.726,815.618c84.455-31.561,198.493-14.646,198.493-14.646
				c107.281-68.267,207.884,10.503,207.884,10.503c69.295-5.251,98.273,42.008,98.273,42.008l-579.556,5.252
				C1308.82,858.735,1327.418,836.661,1383.726,815.618z"/>
		</g>
		<path style="fill:#9ED9F0;" d="M349.701,1580.346c0-8.395,0.192-16.926,0.48-25.587c0.671-21.458,1.727-43.579,3.453-66.368
			c1.247-16.659,2.782-33.584,4.7-50.777h2346.011c-0.959,16.793-2.398,33.719-4.317,50.777
			c-2.302,21.855-5.468,43.845-9.305,66.368c-3.741,21.323-8.154,42.913-13.334,64.503
			c-15.061,63.438-36.452,128.606-64.847,194.708c-0.575,1.2-1.055,2.397-1.534,3.599H385.195c-0.096,0-0.096,0-0.191,0
			c-17.939-6.797-33.671-99.286-35.302-228.824C349.701,1585.944,349.605,1583.145,349.701,1580.346z"/>
		<path style="fill:#FFE0B3;" d="M350.218,1554.807h2340.488c-3.753,21.289-8.115,42.883-13.288,64.474
			c-15.114,63.41-36.517,128.644-64.918,194.639H379.837c-15.722-17.64-28.706-93.061-30.127-194.639
			C349.406,1598.753,349.508,1577.16,350.218,1554.807z"/>
		<g>
			<g>
				<path style="fill:#F0D170;" d="M2550.376,1312.128c-2.769,8.459-7.64,34.778-7.64,34.778l-67.349-22.04
					c0,0,10.481-24.033,13.426-32.885c2.672-8.036,8.614-34.464,8.614-34.464l67.349,22.04
					C2564.776,1279.558,2553.146,1303.664,2550.376,1312.128z"/>
				<path style="opacity:0.3;fill:#DC8D39;" d="M2550.376,1312.128c-2.769,8.459-7.64,34.778-7.64,34.778l-47.439-15.524
					c0,0,10.481-24.033,13.426-32.885c2.672-8.036,8.615-34.465,8.615-34.465l47.438,15.525
					C2564.776,1279.558,2553.146,1303.664,2550.376,1312.128z"/>
				
					<rect x="2529.148" y="1230.411" transform="matrix(0.3111 -0.9504 0.9504 0.3111 541.3414 3278.4636)" style="fill:#DC8D39;" width="5.669" height="70.865"/>
				
					<rect x="2505.345" y="1303.149" transform="matrix(0.3109 -0.9504 0.9504 0.3109 456.1422 3306.2974)" style="fill:#DC8D39;" width="5.669" height="70.864"/>
			</g>
			<g>
				<g>
					<path style="fill:#ECF2FD;" d="M2563.123,1293.222l24.315,37.273c2.878,4.413,1.623,10.381-2.79,13.26l-15.279,9.967
						c-4.664,3.043-10.975,1.716-14.018-2.949l-24.019-36.819c-4.088-6.267-3.825-14.165,0.023-20.083
						c0.505-0.776,0.479-1.808-0.132-2.51c-0.174-0.204-0.338-0.42-0.489-0.651l-1.284-1.969l11.353-7.406l1.284,1.97
						c0.17,0.26,0.313,0.525,0.438,0.797c0.348,0.768,1.151,1.232,1.98,1.086
						C2551.543,1283.951,2558.992,1286.889,2563.123,1293.222z"/>
					<path style="fill:#E5EAF5;" d="M2563.123,1293.222l24.315,37.273c2.878,4.413,1.623,10.381-2.79,13.26l-9.603,6.264
						c-4.665,3.044-10.975,1.716-14.018-2.949l-24.019-36.819c-4.088-6.267-3.826-14.164,0.022-20.082
						c0.185-0.286,0.299-0.608,0.339-0.934c0.067-0.556-0.086-1.133-0.47-1.577c-0.175-0.203-0.339-0.42-0.489-0.651l-1.285-1.969
						l5.677-3.703l1.284,1.97c0.17,0.26,0.313,0.525,0.438,0.797c0.348,0.768,1.151,1.232,1.98,1.086
						C2551.543,1283.951,2558.992,1286.889,2563.123,1293.222z"/>
					<path style="opacity:0.3;fill:#CED4EA;" d="M2556.827,1297.328l24.315,37.273c2.879,4.413,1.623,10.382-2.79,13.261
						l-3.307,2.156c-4.665,3.044-10.975,1.716-14.018-2.949l-24.019-36.819c-4.088-6.267-3.826-14.164,0.022-20.082
						c0.185-0.286,0.299-0.608,0.339-0.934c0.263,0.088,0.55,0.112,0.839,0.06
						C2545.248,1288.057,2552.696,1290.995,2556.827,1297.328z"/>
					
						<rect x="2537.471" y="1304.659" transform="matrix(0.8375 -0.5464 0.5464 0.8375 -304.6522 1610.8414)" style="fill:#D3652C;" width="37.953" height="26.123"/>
				</g>
				
					<rect x="2526.516" y="1281.611" transform="matrix(0.8365 -0.548 0.548 0.8365 -288.9237 1598.5607)" style="fill:#F0D170;" width="15.069" height="3.567"/>
			</g>
			<g>
				<g>
					<path style="fill:#ECF2FD;" d="M2479.332,1277.444l9.023,43.579c1.068,5.159-2.28,10.257-7.439,11.325l-17.863,3.699
						c-5.454,1.129-10.844-2.411-11.973-7.865l-8.913-43.048c-1.518-7.326,1.61-14.583,7.354-18.688
						c0.755-0.538,1.107-1.508,0.795-2.384c-0.088-0.254-0.162-0.516-0.218-0.785l-0.477-2.303l13.272-2.748l0.478,2.302
						c0.063,0.305,0.1,0.604,0.116,0.902c0.043,0.842,0.621,1.567,1.446,1.734
						C2471.938,1264.584,2477.799,1270.039,2479.332,1277.444z"/>
					<path style="fill:#E5EAF5;" d="M2479.332,1277.444l9.023,43.579c1.068,5.159-2.28,10.257-7.439,11.325l-11.227,2.325
						c-5.454,1.129-10.844-2.411-11.973-7.865l-8.914-43.048c-1.517-7.327,1.611-14.583,7.355-18.688
						c0.276-0.198,0.5-0.456,0.656-0.745c0.266-0.492,0.334-1.086,0.139-1.639c-0.088-0.254-0.162-0.516-0.218-0.786l-0.477-2.302
						l6.636-1.374l0.478,2.302c0.063,0.305,0.1,0.604,0.116,0.902c0.043,0.842,0.621,1.567,1.446,1.734
						C2471.938,1264.584,2477.799,1270.039,2479.332,1277.444z"/>
					<path style="opacity:0.3;fill:#CED4EA;" d="M2471.972,1278.968l9.023,43.578c1.068,5.16-2.28,10.258-7.44,11.326l-3.865,0.801
						c-5.454,1.129-10.844-2.411-11.973-7.865l-8.914-43.048c-1.517-7.327,1.611-14.583,7.355-18.688
						c0.276-0.198,0.5-0.456,0.656-0.745c0.213,0.178,0.471,0.306,0.76,0.361
						C2464.577,1266.108,2470.438,1271.564,2471.972,1278.968z"/>
					
						<rect x="2445.195" y="1284.751" transform="matrix(0.9792 -0.2028 0.2028 0.9792 -211.9811 526.6664)" style="fill:#F0D170;" width="37.952" height="26.123"/>
				</g>
				
					<rect x="2448.321" y="1255.895" transform="matrix(0.9788 -0.2047 0.2047 0.9788 -205.4603 529.407)" style="fill:#F0D170;" width="15.069" height="3.567"/>
			</g>
			<g>
				<path style="fill:#699FF0;" d="M2633.938,1564.953l-14.376,91.457l-4.188,26.373l-8.263,52.86H2495.28
					c0,0-14.715-9.056-33.844-20.94c-32.599-20.487-77.648-49.012-82.176-54.104c-2.943-3.283-8.037-27.958-13.018-55.802
					c-7.018-39.73-13.809-86.14-13.809-86.14l40.975-76.517l-35.315-84.553l46.635-128.881l57.953,61.874l127.452,27.051
					L2633.938,1564.953z"/>
				<g>
					<polygon style="fill:#5286D8;" points="2467.69,1548.115 2454.957,1620.274 2550.461,1553.775 					"/>
					<path style="fill:#5286D8;" d="M2619.386,1656.41l-12.45,79.233h-111.832c0,0-14.715-9.056-33.844-20.94l-9.281-27.279
						l107.53-48.783l12.903-0.68L2619.386,1656.41z"/>
					<path style="fill:#4A75CB;" d="M2633.938,1564.953l-14.376,91.457l-4.188,26.373c-7.244-3.621-57.727-29.656-55.689-44.143
						C2561.836,1623.131,2633.938,1564.953,2633.938,1564.953z"/>
					<path style="fill:#4A75CB;" d="M2379.261,1660.598c0,0,67.914,20.516,72.866,26.882c4.952,6.367,19.101,33.25,19.101,33.25
						L2379.261,1660.598z"/>
					<polygon style="fill:#5286D8;" points="2454.957,1620.274 2452.127,1687.48 2559.686,1638.64 2633.938,1564.953 
						2566.024,1475.249 2533.482,1561.556 					"/>
					<path style="fill:#4A75CB;" d="M2467.69,1548.115c0,0,53.765-15.563,58.718-22.638c4.951-7.074,39.616-50.228,39.616-50.228
						s-9.197,70.036-15.563,78.525C2544.094,1562.264,2467.69,1548.115,2467.69,1548.115z"/>
				</g>
				<path style="fill:#5286D8;" d="M2423.631,1497.377l-57.388,107.419c-7.018-39.73-13.809-86.14-13.809-86.14l32.485-38.258
					L2423.631,1497.377z"/>
				<path style="fill:#4A75CB;" d="M2423.631,1497.377c0,0-31.127-12.224-71.196,21.279l40.975-76.517L2423.631,1497.377z"/>
				<polygon style="fill:#4A75CB;" points="2358.094,1357.587 2452.834,1382.339 2492.451,1442.706 				"/>
			</g>
		</g>
		<g>
			<path style="opacity:0.5;fill:#89BEF4;" d="M1482.418,1612.021l-25.811,41.728c-3.056,4.939-9.601,6.482-14.542,3.427
				l-17.104-10.58c-5.223-3.23-6.853-10.149-3.623-15.372l25.496-41.218c4.339-7.016,12.344-10.453,20.054-9.384
				c1.012,0.14,2.029-0.368,2.443-1.307c0.122-0.27,0.261-0.535,0.421-0.794l1.364-2.204l12.709,7.861l-1.364,2.204
				c-0.18,0.291-0.377,0.559-0.591,0.81c-0.603,0.707-0.69,1.727-0.157,2.485
				C1486.246,1596.122,1486.802,1604.932,1482.418,1612.021z"/>
			<path style="opacity:0.3;fill:#CED4EA;" d="M1482.418,1612.021l-25.811,41.728c-3.056,4.939-9.601,6.482-14.542,3.427
				l-10.749-6.649c-5.223-3.23-6.853-10.15-3.623-15.371l25.496-41.219c4.339-7.016,12.345-10.453,20.054-9.385
				c0.371,0.051,0.745,0.014,1.09-0.099c0.586-0.193,1.09-0.616,1.354-1.207c0.122-0.27,0.261-0.535,0.421-0.794l1.364-2.205
				l6.354,3.932l-1.364,2.204c-0.18,0.291-0.377,0.559-0.591,0.81c-0.603,0.707-0.69,1.727-0.157,2.485
				C1486.246,1596.122,1486.802,1604.932,1482.418,1612.021z"/>
			<path style="opacity:0.3;fill:#CED4EA;" d="M1474.668,1585.317c-0.188-0.263-0.298-0.561-0.334-0.864
				c-0.345,0.112-0.719,0.149-1.09,0.099c-7.709-1.068-15.714,2.369-20.054,9.385l-25.496,41.219
				c-3.23,5.222-1.6,12.141,3.623,15.371l3.702,2.29c4.94,3.056,11.485,1.513,14.541-3.427l25.811-41.728
				C1479.755,1600.573,1479.198,1591.762,1474.668,1585.317z"/>
			
				<rect x="1440.44" y="1595.914" transform="matrix(0.5261 -0.8505 0.8505 0.5261 -685.5226 2003.568)" style="fill:#2C3A64;" width="28.8" height="41.842"/>
			
				<rect x="1476.641" y="1570.096" transform="matrix(0.5243 -0.8515 0.8515 0.5243 -640.7048 2009.8547)" style="fill:#2C3A64;" width="3.932" height="16.614"/>
		</g>
		<g>
			<polygon style="fill:#739CF3;" points="1264.362,1766.804 951.158,1766.804 921.158,1354.577 1294.362,1354.577 			"/>
			<rect x="904.158" y="1331.922" style="fill:#2C3A64;" width="407" height="28.892"/>
		</g>
		<g>
			<polygon style="fill:#D2E4FF;" points="1659.277,1317.317 1732.625,1310.332 1779.427,1347.355 1797.267,1416.233 
				1775.236,1463.314 1823.436,1443.056 1935.573,1568.684 1956.004,1675.556 1918.285,1702.274 1592.953,1702.274 
				1545.803,1548.252 1547.375,1422.52 			"/>
			<g>
				<path style="opacity:0.5;fill:#AED3FF;" d="M1823.436,1443.056c0,0-42.611,55.884-51.692,57.979
					c-9.081,2.096-37.023-2.096-36.325-6.286c0.699-4.191,39.817-31.435,39.817-31.435L1823.436,1443.056z"/>
				<path style="opacity:0.5;fill:#AED3FF;" d="M1935.573,1568.684l-59.321,44.345c-5.009,3.744-7.422,10.035-6.186,16.165
					c2.639,13.083,7.493,34.338,11.349,35.302C1887.004,1665.893,1935.573,1568.684,1935.573,1568.684z"/>
				<path style="opacity:0.5;fill:#AED3FF;" d="M1556.94,1559.714c0,0,84.874,44.008,88.017,51.343
					c3.144,7.335-26.195,67.061-37.721,58.678C1595.709,1661.353,1556.94,1559.714,1556.94,1559.714z"/>
			</g>
			<g>
				<path style="fill:#D2E4FF;" d="M1760.567,1325.002c0,0,60.773-16.066,66.362-13.272c5.588,2.794,33.53,41.214,30.736,48.199
					C1854.87,1366.915,1760.567,1325.002,1760.567,1325.002z"/>
				<path style="fill:#C0DBFF;" d="M1756.375,1287.28l4.191,37.722l-25.846-23.052
					C1734.72,1301.95,1744.5,1283.089,1756.375,1287.28z"/>
				<path style="fill:#C0DBFF;" d="M1752.359,1327.796c0-0.523,0.873-8.383,2.27-8.033c1.397,0.35,10.828,6.112,10.828,7.16
					s1.747,8.906-1.921,8.558C1759.868,1335.131,1752.359,1327.796,1752.359,1327.796z"/>
				<path style="opacity:0.5;fill:#AED3FF;" d="M1755.676,1331.943c0,0,9.081,32.832,7.684,35.626
					c-1.397,2.794-20.258,24.099-22.703,23.052C1738.213,1389.573,1755.676,1331.943,1755.676,1331.943z"/>
				<path style="opacity:0.5;fill:#AED3FF;" d="M1752.882,1330.241c0,0-10.479,32.831-13.273,32.483
					c-2.794-0.35-17.464-26.195-15.368-28.291C1726.338,1332.337,1752.882,1330.241,1752.882,1330.241z"/>
				<path style="opacity:0.5;fill:#AED3FF;" d="M1751.366,1328.469l-8.931-4.58c-0.415-0.213-0.903-0.232-1.333-0.055l-3.724,1.541
					c-0.811,0.336-0.639,1.531,0.234,1.625L1751.366,1328.469z"/>
				<path style="opacity:0.5;fill:#AED3FF;" d="M1758.575,1333.205l5.096,5.109c0.748,0.75,0.666,1.987-0.176,2.631l-1.722,1.317
					c-0.576,0.44-1.414,0.122-1.553-0.59L1758.575,1333.205z"/>
				<path style="fill:#C0DBFF;" d="M1759.693,1325.002c0.786-0.263,39.294-4.191,42.437-2.62
					c3.144,1.572,17.551,14.932,11.788,15.718C1808.155,1338.886,1759.693,1325.002,1759.693,1325.002z"/>
			</g>
			<path style="fill:#AED3FF;" d="M1918.285,1702.274c0,0-135.365-20.315-149.336-15.426c-13.971,4.891-62.17,14.67-62.17,14.67
				s-60.075-15.368-66.362-11.875c-6.287,3.492-14.67,12.573-14.67,12.573L1918.285,1702.274z"/>
		</g>
		<path style="fill:#FFD188;" d="M984.601,1746.505c199.444,54.754,343.987-76.162,399.974-104.554
			c55.987-28.393,339.922,97.344,501.884,48.672c161.962-48.672,291.932,8.112,399.908,36.504
			c107.975,28.393,81.981-4.056,197.954-68.952c115.973-64.897,231.434,157.215,231.434,157.215l-2396.933,0.889
			C354.675,1592.373,785.157,1691.752,984.601,1746.505z"/>
		<g>
			<g>
				<path style="fill:#233862;" d="M548.812,1672.579c2.76,9.299,15.5,15.5,17.22,26.869c1.43,9.43,6.42,15.301,11.62,17.03h33.02
					c0.79-1.83,2.58-7.84-6.72-9.87c-11.02-2.41-15.18-15.77-14.49-28.17c0.29-5.2,0.15-11.13-0.1-16.26
					c-0.35-7.1-0.93-12.68-0.93-12.68l-23.43-5.511l-2.46,3.16l-2.36,3.04C560.182,1650.188,546.052,1663.278,548.812,1672.579z"/>
				<path style="fill:#233862;" d="M736.112,1716.478h80.02c-0.83-2.87-3.53-7.8-12.38-9.24c-12.35-2.01-33.75-9.18-38.52-24.97
					c-0.15-0.51-0.29-1.03-0.41-1.561c-3.79-16.879-31.35,5.17-31.35,5.17s-0.08,0.681-0.2,1.83
					C732.632,1693.868,731.012,1713.638,736.112,1716.478z"/>
				<path style="fill:#2B478B;" d="M800.47,1265.024c0,0-4.186,52.224-9.105,115c-6.687,85.276-14.728,190.024-15.524,209.868
					c-1.375,34.458-6.894,89.575-6.894,89.575s-13.085,13.096-39.274,7.576c0,0-23.337-78.683-30.003-161.934
					c-0.104-1.363-0.207-2.738-0.31-4.113c-6.202-84.749-15.844-263.208-15.844-263.208L800.47,1265.024z"/>
				<path style="fill:#233862;" d="M800.47,1265.024c0,0-4.186,52.224-9.105,115l-91.694,145.086
					c-0.104-1.363-0.207-2.738-0.31-4.113c-6.202-84.749-15.844-263.208-15.844-263.208L800.47,1265.024z"/>
				<path style="fill:#2B478B;" d="M781.355,1271.225c0,0-75.448,189.136-125.057,278.019
					c-49.609,88.884-65.112,113.688-65.112,113.688s-28.422-11.369-31.006-19.12c0,0,18.971-171.594,52.193-213.424
					c18.773-23.636,40.824-94.567,41.858-119.372s6.718-73.897,6.718-73.897L781.355,1271.225z"/>
			</g>
			<path style="fill:#FFB27D;" d="M682.088,979.754c0,0,51.049,25.015,80.478,15.733c0,0-7.244-9.28-19.921-16.187
				c1.018-5.999,1.81-11.206,2.264-15.62c1.245-10.188,1.245-15.96,1.245-15.96l-19.695-15.732l-18.677-15.055
				C709.254,959.266,682.088,979.754,682.088,979.754z"/>
			<path style="fill:#A8D29F;" d="M655.187,1246.807c-0.114,3.169,6.565,6.791,9.507,8.149c21.847,9.733,42.22,16.524,65.311,18.79
				c27.279,2.829,59.538-3.396,70.63-3.17c1.132,0,2.151-0.452,3.057-1.245c0.792-0.566,1.358-33.957,0.792-75.95
				c0-1.698,0-3.396-0.113-5.094v-0.565c-0.227-16.413-0.792-33.617-1.584-50.822c-1.585-37.807-4.527-74.254-9.508-94.401
				c-6-23.77-19.583-39.504-31.919-50.936l-10.188-9.057c-10.186,2.039-20.94,1.474-31.693-3.846
				c-11.771-5.773-24.65-12.25-26.688-10.666c-15.394,11.433-25.605,37.377-31.151,70.202c-3.169,18.903-4.754,40.07-4.641,62.255
				c0,8.15,0.227,16.526,0.679,24.789c2.716,44.823,0,83.76-1.584,106.284C655.639,1238.091,655.3,1243.184,655.187,1246.807z"/>
			<path style="fill:#82B378;" d="M656.092,1231.525c247.32-0.339,45.615-184.386,45.615-184.386l-40.069-8.942
				c-3.169,18.903-4.754,40.07-4.641,62.255c0,8.15,0.227,16.526,0.679,24.789C660.393,1170.064,657.677,1209.001,656.092,1231.525z
				"/>
			<path style="fill:#699FF0;" d="M766.113,1110.413l0.792,18.789l0.792,17.431l2.49,59.538l35.089,60.784
				c0,0,26.26,27.845,93.835,27.845c84.213,0,96.664-46.409,96.664-46.409l-1.018-75.157l-30.901-44.258l15.394-44.257
				l-38.032-68.028l-50.483-26.711l-31.92,8.263l-26.826-6.226l-42.22,19.581L766.113,1110.413z"/>
			<path style="fill:#4A75CB;" d="M860.93,991.971l7.593-24.297c0.584-1.869,2.359-3.107,4.315-3.007
				c6.816,0.349,21.733,1.265,21.733,2.589C894.571,968.972,860.93,991.971,860.93,991.971z"/>
			<path style="fill:#4A75CB;" d="M856.811,993.002l-1.097-16.722c-0.143-2.178-2.248-3.678-4.354-3.101l-6.861,1.88
				c-5.079,1.391-5.846,8.274-1.198,10.75L856.811,993.002z"/>
			<path style="fill:#4A75CB;" d="M867.133,993.383c-0.546-0.993-1.088-1.97-1.535-2.771c-0.655-1.176-1.888-1.91-3.234-1.928
				l-9.654-0.12c-1.198-0.016-2.332,0.543-3.051,1.502l-1.501,2.002c-0.612,0.816-0.866,1.847-0.703,2.854l0.237,1.464
				c0.306,1.886,1.978,3.241,3.886,3.15l12.443-0.593C866.796,998.811,868.47,995.817,867.133,993.383z"/>
			<path style="fill:#4A75CB;" d="M941.179,1016.737l-20.156,52.99c-1.154,3.033-5.393,3.169-6.739,0.217l-8.206-18
				c-1.385-3.037-0.531-6.626,2.073-8.715L941.179,1016.737z"/>
			<path style="fill:#4A75CB;" d="M962.189,1131.11c0,0-24.715,30.094-19.91,34.899c4.806,4.806,49.352,7.251,49.352,7.251
				L962.189,1131.11z"/>
			<path style="fill:#4A75CB;" d="M770.239,1206.213c0,0,91.835,30.511,86.801,41.495c-5.035,10.984-51.789,19.261-51.789,19.261
				L770.239,1206.213z"/>
			<path style="fill:#4A75CB;" d="M766.905,1129.202l0.792,17.431l85.345,8.265c3.283,0.338,4.867-4.075,2.037-5.887l-52.746-33.505
				c-3.509-2.15-7.923-2.264-11.432-0.226L766.905,1129.202z"/>
			<path style="fill:#4A75CB;" d="M868.825,1002.957l23.06,5.893c3.861,0.986,5.628,5.46,3.484,8.819l-2.73,4.276
				c-1.602,2.509-5.171,2.761-7.109,0.5L868.825,1002.957z"/>
			<path style="fill:#4A75CB;" d="M856.811,1002.27l-23.056-4.051c-1.5-0.264-3.043,0.091-4.278,0.982l-9.192,6.639
				c-1.722,1.244-0.533,3.957,1.548,3.534L856.811,1002.27z"/>
			<path style="fill:#AB7041;" d="M829.669,1155.704l9.157-2.937c0,0,6.407-21.195,28.064-11.709c0,0,8.793,4.663,4.92,10.18
				c-3.872,5.517-3.165,2.611-8.458,10.558c-5.292,7.947-13.669,11.717-20.345,8.714l-7.607,0.219L829.669,1155.704z"/>
			<path style="fill:#A8D29F;" d="M682.077,979.699c0,0-56.009,89.074,3.652,192.007c18.624,32.131,159.292,1.592,159.292,1.592
				s5.483-9.904-9.197-20.34c0,0-93.655-15.853-104.818-18.511c-9.904-2.358-3.301-93.382-14.621-119.793
				C705.066,988.243,682.077,979.699,682.077,979.699z"/>
			<path style="fill:#ED985F;" d="M707.443,933.12c0,0,12.903,23.883,37.466,30.56c1.245-10.188,1.245-15.96,1.245-15.96
				l-19.695-15.732L707.443,933.12z"/>
			<path style="fill:#FFB27D;" d="M755.134,947.031c0,0-48.699,8.09-53.27-22.315c-4.571-30.405-13.936-49.837,16.964-56.288
				c30.899-6.451,38.699,4.241,42.693,14.018C765.515,892.223,767.684,944.142,755.134,947.031z"/>
			<path style="fill:#233862;" d="M702.185,926.814c0,0,0.982-40.728,45.355-47.265c30.393-4.477,11.987-29.874,8.513-33.896
				c0,0-23.233,4.433-47.013,9.653C659.129,866.26,696.91,920.758,702.185,926.814z"/>
		</g>
		<g>
			<path style="fill:#FFB27D;" d="M2285.849,1609.917c7.839,70.316,11.823,125.979,11.823,125.979l17.473,19.106
				c0,0,20.748-89.714,24.561-145.128C2329.81,1613.466,2311.571,1617.073,2285.849,1609.917z"/>
			<path style="fill:#FFB27D;" d="M2179.073,1738.285l12.877,19.74c0,0,40.511-96.245,52.177-151.836
				c-10.464,1.729-32.331,3.165-55.513-8.458C2185.598,1677.223,2179.073,1738.285,2179.073,1738.285z"/>
			<path style="fill:#FFB27D;" d="M2078.205,1308.008c0,0,74.105,63.318,87.652,70.809c13.546,7.489,73.173,61.145,73.173,61.145
				c6.773-0.171,12.736,8.65,12.736,8.65c6.51,5.37,7.597,12.943,7.348,18.404c-0.108,2.36-3.073,3.354-4.605,1.557
				c-6.54-7.671-19.635-18.531-19.635-18.531s-65.336-30.11-81.633-41.271s-92.991-53.803-92.991-53.803L2078.205,1308.008z"/>
			<g>
				<path style="fill:#942E2A;" d="M1921.495,1275.96c0,0-20.041-12.203-3.305-42.008c0,0-6.685,14.682-2.104,20.703
					c0,0-1.773-13.839,5.23-19.977c7.003-6.139,23.012-2.518,27.413,0.096s15.941,15.396,14.213,20.943
					c-1.728,5.546-8.641,10.595-8.641,10.595L1921.495,1275.96z"/>
				<path style="fill:#942E2A;" d="M1926.028,1340.33c0,0-35.971-55.537,1.765-67.25c0,0,11.594-13.897,40.558-11.207
					c29.552,2.745,44.878,27.74,36.703,35.648c-5.244,5.072,4.012,13.031,4.012,13.031L1926.028,1340.33z"/>
				<path style="fill:#FFB27D;" d="M2036.498,1360.812c0.021,0.175,12.491-12.406,12.92-24.658
					c0.413-11.521,1.045-26.091,0.969-25.954c-2.294,4.219-21.119,6.932-47.646-1.438l-0.233,2.158l-3.88,36.294
					c0,0,11,2.573,21.143,5.708C2028.286,1355.55,2036.196,1358.581,2036.498,1360.812z"/>
				<path style="fill:#ED985F;" d="M1998.627,1347.214c0,0,11,2.573,21.143,5.708c5.42-19.298-8.88-34.846-17.262-42.002
					L1998.627,1347.214z"/>
				<path style="fill:#942E2A;" d="M1999.886,1306.23c0,0-12.717-14.959-25.512-21.585c-9.135-4.73-46.512-10.972-52.571,26.655
					c0,0-2.228,10.782,1.35,22.685c2.846,9.466,10.732,24.305,45.941,21.429l11.587,0.014L1999.886,1306.23z"/>
				<path style="fill:#FFB27D;" d="M2006.233,1356.592c0,0,14.846-45.027-13.337-53.842s-45.248-20.562-55.918,7.814
					s-1.672,37.353,7.02,42.582C1952.689,1358.378,2001.645,1368.078,2006.233,1356.592z"/>
				<path style="fill:#942E2A;" d="M1929.866,1330.964c0,0,36.936-2.088,47.751-19.582c10.815-17.494,8.29-27.331,8.29-27.331
					s-16.589,2.241-37.305,7.702C1938.097,1294.523,1917.035,1316.712,1929.866,1330.964z"/>
			</g>
			<path style="fill:#FFB27D;" d="M1942.812,1592.502c0,0,20.714-31.692,38.485-60.668c11.319-18.451,21.392-35.769,24.109-42.899
				c7.018-18.45,73.574-123.265,73.574-123.265l-62.481-14.148c0,0-31.693,104.928-42.899,127.452
				c-3.962,8.149-10.98,24.789-18.111,42.785c-12.677,31.693-26.147,67.349-26.147,67.349S1944.283,1600.991,1942.812,1592.502z"/>
			<path style="fill:#FFB93E;" d="M2013.612,1357.709c0,0,15.395-39.761,28.176-44.595c0.084-0.032,0.175-0.052,0.262-0.079
				c2.108-2.726,5.121-5.261,9.208-7.54c37.598-20.981,102.426-31.735,170.93-25.586c0,0,62.727,5.17,101.282,41.957
				c16.673,15.907-61.342,24.685-61.342,24.685c-3.246,0.971-6.425,2.062-9.561,3.244c-13.72,5.165-26.446,12.05-39.169,18.505
				c-11.413,5.78-22.832,11.215-34.972,14.757c-4.602,1.333-9.3,2.404-14.143,3.114c-13.354,1.96-24.705,3.452-33.917,4.58
				c-19.174,2.329-38.511-3.057-53.637-15.061c-3.241,3.629-6.9,7.962-11.002,13.146
				C2065.727,1388.837,2038.592,1362.989,2013.612,1357.709z"/>
			<path style="fill:#E28D05;" d="M2088.197,1364.52c0,0,14.207-18.553,50.461-12.839c28.833,4.541,87.469,10.159,74.74,16.61
				c0,0-3.69,1.86-5.537,2.77c-0.682,0.336-1.364,0.67-2.048,1.001c-0.517,0.251-1.034,0.501-1.551,0.749
				c-1.033,0.494-2.067,0.98-3.104,1.462c-0.377,0.175-0.754,0.349-1.131,0.521c-1.128,0.517-2.259,1.024-3.393,1.521
				c-0.301,0.132-0.602,0.262-0.903,0.392c-1.195,0.518-2.394,1.022-3.597,1.514c-0.244,0.1-0.489,0.197-0.733,0.295
				c-1.254,0.505-2.512,0.996-3.777,1.469c-0.196,0.073-0.394,0.144-0.59,0.216c-1.313,0.483-2.63,0.952-3.957,1.396
				c-0.144,0.048-0.288,0.093-0.432,0.141c-1.337,0.441-2.681,0.864-4.034,1.262c-0.063,0.018-0.123,0.039-0.185,0.058
				c-4.602,1.333-9.3,2.404-14.143,3.114c-13.354,1.96-24.705,3.452-33.917,4.58c-19.229,2.336-38.625-3.085-53.771-15.161
				L2088.197,1364.52z"/>
			<path style="fill:#D8716B;" d="M2235.798,1351.019c3.11,6.83,6.11,14.88,9,23.91c2.55,8.01,5.01,16.78,7.38,26.17
				c0.37,1.45,0.73,2.9,1.08,4.37c6.29,25.69,11.93,55.63,16.9,86.82c3.23,20.239,6.18,41.01,8.85,61.47
				c0.04,0.35,0.09,0.7,0.13,1.05c2.45,18.86,4.66,37.44,6.62,55.11c0.01,0.12,0.03,0.229,0.04,0.351
				c25.25,6.459,43.44,3.359,53.79-0.051c0.01-0.12,0.02-0.23,0.03-0.35c1.64-23.79,0.87-44.351-4.71-54.48
				c-10.42-18.95,21.23-168.99-1.17-217.99c-22.4-49.01-82.7-24.97-82.7-24.97L2235.798,1351.019z"/>
			<path style="fill:#AA3F3A;" d="M2244.797,1374.932c2.554,8.002,5.008,16.78,7.384,26.17c0.363,1.444,0.726,2.896,1.081,4.367
				c6.289,25.688,11.929,55.635,16.901,86.819c3.23,20.245,6.175,41.009,8.842,61.468c0.042,0.349,0.092,0.704,0.135,1.053
				c50.512-187.795,11.054-188.556,11.054-188.556L2244.797,1374.932z"/>
			<path style="fill:#D8716B;" d="M2189.628,1492.16c0.8,36.939,0.21,73-1.03,105.569c-0.01,0.34-0.03,0.681-0.04,1.01
				c22.52,9.701,43.63,9.281,55.48,7.83c0.03-0.129,0.05-0.25,0.08-0.379c4.14-19.78,5.67-36.9,2.19-47.001
				c-4.57-13.29,11.34-52.67,22.28-110.779l18.49-27.03c16.01-31.3,17.49-45.59,12.09-63.66c-6.04-20.28-39.91-39.05-48.13-45.29
				l-13.78,5.95c-32.92,14.62-52.56,48.21-50.72,84.17C2187.858,1428.259,2188.898,1458.759,2189.628,1492.16z"/>
			<g>
				<path style="fill:#D8716B;" d="M2318.824,1772.074h-9.98c-3.343-0.526-5.812-1.494-9.24-1.942
					c-5.207-0.683-7.604,1.451-8.081,1.942c-0.064,0.063-0.093,0.1-0.093,0.1h-42.396c-1.067-1.522-0.042-5.051,0.96-7.647
					c0.676-1.764,2.148-3.102,3.969-3.627c4.496-1.303,13.359-2.462,21.476-9.81c4.567-4.126,22.052-15.173,22.052-15.173
					l0.092-0.021c0.384,0.007,2.212,0.568,10.165,7.284c4.112,3.464,11.118-4.895,11.118-4.895s1.316,1.089,2.298,3.116
					c0.79,1.6,1.366,3.799,0.91,6.509c-0.633,3.819,1.409,10.919,3.038,15.72c0.989,2.91,1.821,4.973,1.821,4.973
					S2327.41,1771,2318.824,1772.074z"/>
				<path style="fill:#AA3F3A;" d="M2321.164,1741.401c-2.383,1.679-7.413,4.986-10.749,5.42
					c-4.503,0.591-12.925-10.904-12.925-10.904l0.092-0.021c0.384,0.007,2.212,0.568,10.165,7.284
					c4.112,3.464,11.118-4.895,11.118-4.895S2320.182,1739.374,2321.164,1741.401z"/>
				<path style="fill:#AA3F3A;" d="M2318.824,1772.074h-9.98c-3.343-0.526-5.812-1.494-9.24-1.942
					c-5.207-0.683-7.604,1.451-8.081,1.942c-0.064,0.063-0.093,0.1-0.093,0.1h-42.396c-1.067-1.522-0.042-5.051,0.96-7.647
					c1.288-1.145,1.65,4.973,2.362,5.947s34.585,0.355,36.542-1.066c1.956-1.423,7.825-3.913,16.005-1.957
					c7.121,1.7,17.613-2.66,20.209-3.82c0.989,2.91,1.821,4.973,1.821,4.973S2327.41,1771,2318.824,1772.074z"/>
			</g>
			<g>
				<path style="fill:#D8716B;" d="M2200.03,1772.074h-9.98c-3.343-0.526-5.812-1.494-9.24-1.942
					c-5.207-0.683-7.604,1.451-8.081,1.942c-0.064,0.063-0.093,0.1-0.093,0.1h-42.396c-1.067-1.522-0.042-5.051,0.96-7.647
					c0.676-1.764,2.148-3.102,3.969-3.627c4.496-1.303,13.359-2.462,21.476-9.81c4.567-4.126,22.051-15.173,22.051-15.173
					l0.093-0.021c0.384,0.007,2.212,0.568,10.165,7.284c4.111,3.464,11.118-4.895,11.118-4.895s1.316,1.089,2.298,3.116
					c0.79,1.6,1.366,3.799,0.91,6.509c-0.633,3.819,1.409,10.919,3.038,15.72c0.989,2.91,1.821,4.973,1.821,4.973
					S2208.616,1771,2200.03,1772.074z"/>
				<path style="fill:#AA3F3A;" d="M2202.37,1741.401c-2.383,1.679-7.413,4.986-10.749,5.42
					c-4.503,0.591-12.925-10.904-12.925-10.904l0.093-0.021c0.384,0.007,2.212,0.568,10.165,7.284
					c4.111,3.464,11.118-4.895,11.118-4.895S2201.388,1739.374,2202.37,1741.401z"/>
				<path style="fill:#AA3F3A;" d="M2200.03,1772.074h-9.98c-3.343-0.526-5.812-1.494-9.24-1.942
					c-5.207-0.683-7.604,1.451-8.081,1.942c-0.064,0.063-0.093,0.1-0.093,0.1h-42.396c-1.067-1.522-0.042-5.051,0.96-7.647
					c1.288-1.145,1.65,4.973,2.362,5.947s34.585,0.355,36.542-1.066c1.956-1.423,7.825-3.913,16.005-1.957
					c7.12,1.7,17.613-2.66,20.209-3.82c0.989,2.91,1.821,4.973,1.821,4.973S2208.616,1771,2200.03,1772.074z"/>
			</g>
			<path style="fill:#D8716B;" d="M1926.125,1626.536c7.017-0.679-2.123-7.696,3.537-16.979c0,0,14.621-8.566,13.149-17.056
				c0,0,20.714-31.692,38.485-60.668c-7.697-1.359-16.639-4.189-25.808-10.075c-12.677,31.693-26.147,67.349-26.147,67.349
				s-7.418,10.481-14.535,21.157C1912.448,1613.801,1923.183,1626.762,1926.125,1626.536z"/>
		</g>
		<g>
			<path style="opacity:0.5;fill:#89BEF4;" d="M1859.446,1717.192l25.811,41.728c3.056,4.939,9.601,6.482,14.542,3.427l17.103-10.58
				c5.223-3.231,6.853-10.149,3.623-15.372l-25.496-41.218c-4.339-7.016-12.344-10.453-20.054-9.384
				c-1.012,0.14-2.029-0.368-2.443-1.307c-0.122-0.269-0.261-0.535-0.421-0.794l-1.364-2.204l-12.709,7.861l1.364,2.204
				c0.18,0.291,0.377,0.559,0.591,0.81c0.603,0.707,0.69,1.726,0.157,2.485C1855.617,1701.293,1855.061,1710.103,1859.446,1717.192z
				"/>
			<path style="opacity:0.3;fill:#CED4EA;" d="M1859.446,1717.192l25.811,41.728c3.056,4.939,9.601,6.482,14.542,3.427l10.749-6.649
				c5.223-3.23,6.853-10.15,3.623-15.371l-25.496-41.219c-4.339-7.016-12.345-10.453-20.054-9.385
				c-0.371,0.051-0.745,0.014-1.09-0.099c-0.586-0.193-1.09-0.616-1.354-1.207c-0.122-0.27-0.261-0.535-0.421-0.794l-1.364-2.205
				l-6.354,3.932l1.364,2.204c0.18,0.291,0.377,0.559,0.591,0.81c0.603,0.707,0.69,1.726,0.157,2.485
				C1855.617,1701.293,1855.061,1710.103,1859.446,1717.192z"/>
			<path style="opacity:0.3;fill:#CED4EA;" d="M1867.196,1690.488c0.188-0.263,0.298-0.561,0.334-0.864
				c0.345,0.112,0.719,0.149,1.09,0.099c7.709-1.068,15.714,2.369,20.054,9.385l25.496,41.219c3.23,5.222,1.6,12.141-3.623,15.371
				l-3.702,2.29c-4.94,3.056-11.485,1.513-14.541-3.427l-25.811-41.727C1862.108,1705.744,1862.665,1696.933,1867.196,1690.488z"/>
			
				<rect x="1866.102" y="1707.606" transform="matrix(0.8505 -0.5261 0.5261 0.8505 -623.6648 1250.1941)" style="fill:#2C3A64;" width="41.842" height="28.8"/>
			
				<rect x="1854.95" y="1681.608" transform="matrix(0.8515 -0.5243 0.5243 0.8515 -606.0828 1226.9467)" style="fill:#2C3A64;" width="16.614" height="3.932"/>
		</g>
		<path style="fill:#FCC370;" d="M960.662,1794.358c212.765,42.276,366.962-58.806,426.688-80.728
			c59.726-21.922,362.625,75.161,535.405,37.581c172.78-37.581,311.431,6.263,426.617,28.185
			c115.187,21.923,87.456-3.132,211.176-53.239c123.719-50.107,204.776,97.084,204.776,97.084H250.416
			C378.402,1704.235,747.898,1752.083,960.662,1794.358z"/>
		<path style="fill:#EE9849;" d="M211.595,1815.234h2574.811c1.429,0,2.598,1.624,2.598,3.61v0.943c0,1.985-1.169,3.61-2.598,3.61
			H211.595c-1.429,0-2.599-1.625-2.599-3.61v-0.943C208.996,1816.858,210.166,1815.234,211.595,1815.234z"/>
		<g>
			<path style="fill:#FFFFFF;" d="M997.06,1488.349c5.18,0,9.205,1.22,12.074,3.661c2.868,2.441,4.303,6.016,4.303,10.726
				c0,4.711-1.435,8.307-4.303,10.79c-2.869,2.484-6.894,3.725-12.074,3.725h-10.276v14.322c0,0.472-0.171,0.878-0.514,1.22
				c-0.343,0.343-0.75,0.514-1.22,0.514h-5.203c-0.472,0-0.878-0.17-1.22-0.514c-0.344-0.342-0.514-0.748-0.514-1.22v-41.49
				c0-0.47,0.17-0.877,0.514-1.22c0.342-0.342,0.748-0.514,1.22-0.514H997.06z M986.783,1509.222h9.955
				c2.44,0,4.389-0.481,5.845-1.445c1.455-0.964,2.184-2.644,2.184-5.042c0-2.397-0.729-4.056-2.184-4.977
				c-1.456-0.92-3.404-1.381-5.845-1.381h-9.955V1509.222z"/>
			<path style="fill:#FFFFFF;" d="M1050.302,1525.278c0.471,0,0.877,0.172,1.221,0.514c0.342,0.343,0.514,0.75,0.514,1.22v4.56
				c0,0.472-0.172,0.878-0.514,1.22c-0.344,0.343-0.75,0.514-1.221,0.514h-28.131c-0.472,0-0.878-0.17-1.22-0.514
				c-0.344-0.342-0.514-0.748-0.514-1.22v-41.49c0-0.47,0.17-0.877,0.514-1.22c0.342-0.342,0.748-0.514,1.22-0.514h5.203
				c0.47,0,0.877,0.171,1.22,0.514c0.343,0.343,0.514,0.75,0.514,1.22v35.195H1050.302z"/>
			<path style="fill:#FFFFFF;" d="M1079.331,1488.349c0.684,0,1.198,0.183,1.541,0.546c0.343,0.364,0.643,0.91,0.899,1.638
				l15.735,40.59c0.042,0.128,0.064,0.279,0.064,0.45c0,0.472-0.172,0.878-0.515,1.22c-0.343,0.343-0.749,0.514-1.22,0.514h-4.624
				c-0.857,0-1.456-0.182-1.799-0.546c-0.343-0.363-0.578-0.716-0.706-1.06l-2.762-7.129h-20.295l-2.762,7.129
				c-0.129,0.343-0.364,0.696-0.707,1.06c-0.343,0.364-0.942,0.546-1.798,0.546h-4.624c-0.472,0-0.878-0.17-1.221-0.514
				c-0.343-0.342-0.514-0.748-0.514-1.22c0-0.171,0.021-0.321,0.064-0.45l15.734-40.59c0.258-0.728,0.557-1.274,0.899-1.638
				c0.343-0.363,0.857-0.546,1.542-0.546H1079.331z M1082.864,1516.544l-7.065-18.304l-7.065,18.304H1082.864z"/>
			<path style="fill:#FFFFFF;" d="M1118.252,1487.707c2.868,0,5.395,0.385,7.578,1.156c2.184,0.771,4.003,1.734,5.459,2.89
				c1.455,1.156,2.559,2.431,3.308,3.821c0.749,1.392,1.166,2.708,1.253,3.95c0.042,0.514-0.119,0.931-0.482,1.252
				c-0.364,0.321-0.781,0.481-1.252,0.481h-4.496c-0.729,0-1.275-0.138-1.638-0.417c-0.364-0.278-0.696-0.652-0.995-1.124
				c-0.642-1.069-1.617-2.001-2.922-2.793c-1.307-0.792-3.244-1.189-5.813-1.189c-1.114,0-2.174,0.119-3.18,0.354
				c-1.006,0.236-1.885,0.578-2.633,1.027c-0.75,0.45-1.339,0.996-1.767,1.638c-0.429,0.643-0.642,1.371-0.642,2.184
				c0,0.986,0.202,1.789,0.609,2.409c0.407,0.621,1.092,1.156,2.056,1.605c0.963,0.45,2.236,0.867,3.821,1.253
				c1.584,0.385,3.554,0.835,5.909,1.349c2.568,0.557,4.784,1.21,6.646,1.959c1.863,0.75,3.382,1.649,4.561,2.697
				c1.177,1.05,2.055,2.259,2.633,3.629c0.578,1.371,0.867,2.933,0.867,4.688c0,1.927-0.429,3.715-1.284,5.363
				c-0.857,1.649-2.077,3.062-3.661,4.239c-1.585,1.178-3.532,2.109-5.845,2.794c-2.312,0.684-4.903,1.027-7.771,1.027
				c-2.399,0-4.688-0.289-6.872-0.867c-2.185-0.578-4.122-1.413-5.813-2.505c-1.692-1.092-3.051-2.409-4.078-3.95
				c-1.028-1.542-1.607-3.253-1.734-5.138c-0.043-0.514,0.117-0.931,0.481-1.252c0.363-0.321,0.781-0.482,1.253-0.482h4.495
				c0.727,0,1.284,0.129,1.67,0.385c0.386,0.257,0.707,0.642,0.964,1.156c0.299,0.557,0.663,1.114,1.092,1.67
				c0.427,0.557,1.005,1.05,1.733,1.477c0.728,0.429,1.638,0.782,2.729,1.06c1.092,0.279,2.451,0.417,4.079,0.417
				c1.284,0,2.525-0.097,3.725-0.289c1.198-0.193,2.248-0.514,3.147-0.963c0.899-0.45,1.626-1.005,2.184-1.67
				c0.556-0.664,0.835-1.487,0.835-2.473c0-0.941-0.301-1.712-0.899-2.312c-0.601-0.599-1.51-1.113-2.729-1.542
				c-1.221-0.428-2.729-0.835-4.528-1.22c-1.798-0.385-3.875-0.877-6.229-1.477c-2.142-0.514-4.015-1.124-5.62-1.831
				c-1.605-0.707-2.933-1.574-3.981-2.601c-1.05-1.028-1.831-2.237-2.345-3.629c-0.514-1.391-0.771-3.051-0.771-4.978
				c0-1.927,0.428-3.703,1.284-5.331c0.857-1.627,2.033-3.019,3.533-4.174c1.498-1.156,3.285-2.065,5.362-2.73
				C1113.616,1488.039,1115.854,1487.707,1118.252,1487.707z"/>
			<path style="fill:#FFFFFF;" d="M1173.936,1488.349c0.471,0,0.877,0.171,1.22,0.514c0.343,0.343,0.515,0.75,0.515,1.22v4.56
				c0,0.472-0.172,0.878-0.515,1.22c-0.343,0.343-0.749,0.514-1.22,0.514h-11.561v35.195c0,0.472-0.172,0.878-0.514,1.22
				c-0.344,0.343-0.75,0.514-1.221,0.514h-5.202c-0.472,0-0.878-0.17-1.22-0.514c-0.344-0.342-0.514-0.748-0.514-1.22v-35.195
				h-11.561c-0.472,0-0.879-0.171-1.221-0.514c-0.343-0.342-0.514-0.748-0.514-1.22v-4.56c0-0.47,0.171-0.877,0.514-1.22
				c0.342-0.342,0.749-0.514,1.221-0.514H1173.936z"/>
			<path style="fill:#FFFFFF;" d="M1183.825,1533.307c-0.472,0-0.878-0.17-1.22-0.514c-0.344-0.342-0.514-0.748-0.514-1.22v-41.49
				c0-0.47,0.17-0.877,0.514-1.22c0.342-0.342,0.748-0.514,1.22-0.514h5.203c0.47,0,0.877,0.171,1.22,0.514
				c0.343,0.343,0.514,0.75,0.514,1.22v41.49c0,0.472-0.171,0.878-0.514,1.22c-0.343,0.343-0.75,0.514-1.22,0.514H1183.825z"/>
			<path style="fill:#FFFFFF;" d="M1228.397,1519.049c0.086-0.556,0.31-0.974,0.675-1.252c0.363-0.278,0.76-0.417,1.188-0.417h5.202
				c0.471,0,0.888,0.161,1.252,0.481c0.363,0.321,0.523,0.739,0.481,1.252c-0.128,1.756-0.567,3.511-1.316,5.267
				c-0.75,1.756-1.894,3.34-3.435,4.752c-1.542,1.413-3.49,2.569-5.845,3.468c-2.355,0.899-5.202,1.349-8.542,1.349
				c-2.954,0-5.566-0.44-7.836-1.316c-2.269-0.877-4.196-2.097-5.78-3.661c-1.584-1.563-2.815-3.436-3.692-5.62
				c-0.878-2.184-1.403-4.559-1.573-7.129c-0.087-1.626-0.129-3.425-0.129-5.395c0-1.969,0.042-3.768,0.129-5.395
				c0.17-2.569,0.695-4.945,1.573-7.129c0.877-2.184,2.108-4.056,3.692-5.62c1.584-1.563,3.511-2.783,5.78-3.661
				c2.27-0.877,4.882-1.316,7.836-1.316c3.34,0,6.187,0.449,8.542,1.349c2.354,0.899,4.303,2.055,5.845,3.468
				c1.541,1.413,2.685,3.008,3.435,4.785c0.749,1.777,1.189,3.522,1.316,5.234c0.042,0.514-0.118,0.931-0.481,1.253
				c-0.364,0.321-0.781,0.481-1.252,0.481h-5.202c-0.429,0-0.835-0.138-1.221-0.418c-0.386-0.278-0.621-0.695-0.706-1.252
				c-0.129-0.856-0.429-1.691-0.899-2.504c-0.472-0.813-1.114-1.542-1.927-2.184c-0.814-0.642-1.842-1.166-3.083-1.573
				c-1.242-0.406-2.697-0.61-4.367-0.61c-1.67,0-3.126,0.257-4.367,0.771c-1.242,0.514-2.28,1.199-3.115,2.055
				c-0.835,0.857-1.476,1.884-1.927,3.083c-0.449,1.199-0.718,2.463-0.803,3.79c-0.086,1.627-0.128,3.426-0.128,5.395
				c0,1.97,0.042,3.768,0.128,5.395c0.085,1.371,0.354,2.645,0.803,3.821c0.45,1.178,1.092,2.195,1.927,3.051
				c0.835,0.857,1.873,1.542,3.115,2.055c1.241,0.514,2.697,0.771,4.367,0.771c1.67,0,3.125-0.203,4.367-0.61
				c1.241-0.406,2.28-0.931,3.115-1.573c0.835-0.643,1.487-1.37,1.959-2.184C1227.969,1520.741,1228.269,1519.906,1228.397,1519.049
				z"/>
			<path style="fill:#FFFFFF;" d="M1028.947,1582.182c0.129-2.398,0.589-4.656,1.381-6.776c0.792-2.119,1.959-3.959,3.501-5.523
				c1.541-1.563,3.468-2.804,5.78-3.725c2.312-0.92,5.052-1.381,8.221-1.381c3.125,0,5.844,0.449,8.156,1.349
				c2.313,0.899,4.239,2.142,5.78,3.725c1.541,1.584,2.719,3.426,3.532,5.523c0.813,2.098,1.284,4.367,1.413,6.808
				c0.042,0.814,0.074,1.713,0.097,2.697c0.021,0.986,0.032,2.002,0.032,3.051c0,1.05-0.012,2.066-0.032,3.051
				c-0.022,0.985-0.055,1.885-0.097,2.697c-0.129,2.398-0.589,4.657-1.381,6.776c-0.793,2.12-1.959,3.961-3.5,5.523
				c-1.542,1.563-3.479,2.794-5.813,3.693c-2.334,0.899-5.064,1.349-8.189,1.349c-3.169,0-5.909-0.449-8.221-1.349
				c-2.313-0.899-4.239-2.129-5.78-3.693c-1.542-1.563-2.709-3.404-3.501-5.523c-0.792-2.119-1.252-4.378-1.381-6.776
				c-0.043-0.813-0.075-1.712-0.096-2.697c-0.023-0.984-0.032-2.001-0.032-3.051c0-1.048,0.01-2.065,0.032-3.051
				C1028.871,1583.895,1028.904,1582.996,1028.947,1582.182z M1058.041,1582.503c-0.172-3.083-1.168-5.469-2.987-7.161
				c-1.82-1.691-4.229-2.537-7.225-2.537c-2.998,0-5.406,0.846-7.226,2.537c-1.82,1.692-2.815,4.078-2.986,7.161
				c-0.087,1.627-0.129,3.436-0.129,5.427c0,1.991,0.042,3.8,0.129,5.427c0.171,3.083,1.166,5.459,2.986,7.129
				c1.819,1.67,4.228,2.505,7.226,2.505c2.996,0,5.404-0.835,7.225-2.505c1.819-1.67,2.816-4.046,2.987-7.129
				c0.085-1.627,0.128-3.436,0.128-5.427C1058.169,1585.939,1058.126,1584.13,1058.041,1582.503z"/>
			<path style="fill:#FFFFFF;" d="M1104.347,1610.376c-0.729,0-1.285-0.193-1.67-0.578c-0.386-0.385-0.664-0.684-0.835-0.899
				l-17.983-26.718v26.461c0,0.472-0.171,0.878-0.514,1.22c-0.343,0.343-0.75,0.514-1.22,0.514h-5.203
				c-0.472,0-0.878-0.17-1.22-0.514c-0.344-0.342-0.514-0.749-0.514-1.22v-41.49c0-0.47,0.17-0.877,0.514-1.22
				c0.342-0.342,0.748-0.514,1.22-0.514h4.496c0.727,0,1.284,0.193,1.67,0.578c0.386,0.385,0.663,0.686,0.835,0.899l17.983,26.718
				v-26.461c0-0.47,0.17-0.877,0.514-1.22c0.342-0.342,0.748-0.514,1.22-0.514h5.202c0.471,0,0.877,0.171,1.221,0.514
				c0.342,0.343,0.514,0.75,0.514,1.22v41.49c0,0.472-0.172,0.878-0.514,1.22c-0.344,0.343-0.75,0.514-1.221,0.514H1104.347z"/>
			<path style="fill:#FFFFFF;" d="M1150.459,1602.348c0.471,0,0.877,0.172,1.221,0.514c0.342,0.343,0.514,0.75,0.514,1.22v4.56
				c0,0.472-0.172,0.878-0.514,1.22c-0.344,0.343-0.75,0.514-1.221,0.514h-28.131c-0.472,0-0.878-0.17-1.22-0.514
				c-0.344-0.342-0.514-0.749-0.514-1.22v-41.49c0-0.47,0.17-0.877,0.514-1.22c0.342-0.342,0.748-0.514,1.22-0.514h5.203
				c0.47,0,0.877,0.171,1.22,0.514c0.343,0.343,0.514,0.75,0.514,1.22v35.195H1150.459z"/>
			<path style="fill:#FFFFFF;" d="M1185.849,1565.419c0.47,0,0.877,0.171,1.22,0.514c0.342,0.343,0.514,0.75,0.514,1.22
				c0,0.215-0.043,0.408-0.128,0.578l-15.222,26.782v14.13c0,0.472-0.172,0.878-0.514,1.22c-0.344,0.343-0.75,0.514-1.221,0.514
				h-5.138c-0.472,0-0.878-0.17-1.221-0.514c-0.343-0.342-0.514-0.749-0.514-1.22v-14.13l-15.221-26.782
				c-0.087-0.17-0.129-0.363-0.129-0.578c0-0.47,0.171-0.877,0.514-1.22c0.343-0.342,0.749-0.514,1.221-0.514h4.816
				c0.856,0,1.499,0.215,1.927,0.642c0.428,0.429,0.685,0.75,0.772,0.963l10.404,18.176l10.404-18.176
				c0.085-0.213,0.342-0.535,0.771-0.963c0.428-0.427,1.069-0.642,1.927-0.642H1185.849z"/>
		</g>
	</g>
</g>
</svg>
