<?xml version="1.0" encoding="UTF-8"?>
<svg xmlns="http://www.w3.org/2000/svg" id="Layer_1" data-name="Layer 1" viewBox="0 0 24 24" width="512" height="512"><path fill="#ffff" d="M23,24H1c-.445,0-.837-.294-.96-.722-.124-.427,.05-.885,.426-1.123,.204-.129,5.067-2.155,11.534-2.155s11.33,2.026,11.534,2.155c.376,.238,.55,.696,.426,1.123-.124,.428-.515,.722-.96,.722ZM11.997,.002S7.934-.145,4.738,2.11c-1.801,1.271-2.942,3.034-3.595,4.33-.388,.771,.234,1.686,1.05,1.546,1.384-.238,3.371-.789,5.179-2.065C10.568,3.666,11.997,.002,11.997,.002m.029,0s1.43,3.665,4.625,5.919c1.809,1.276,3.795,1.827,5.179,2.065,.816,.14,1.438-.775,1.05-1.546-.653-1.296-1.794-3.059-3.595-4.33C16.091-.145,12.027,.002,12.027,.002m-3.502,7.554c-.5,.353-1.01,.654-1.519,.918-.037,1.11,.169,2.206,.394,2.875,.196,.582,.961,.834,1.538,.507,1.147-.65,2.909-2.203,3.654-3.993,.709-1.703,.357-3.517-.024-4.674-.869,1.374-2.195,3.063-4.043,4.367Zm7.705,.475c-.245-.149-.489-.305-.73-.475-.216-.152-.421-.312-.623-.474-.088,.513-.222,1.032-.438,1.55-.275,.661-.66,1.289-1.096,1.877-.139,2.773-.98,5.501-1.772,7.501,.144-.002,.284-.008,.43-.008,1.634,0,3.173,.125,4.583,.317,.394-2.354,.715-5.853-.045-9.081-.099-.422-.204-.815-.309-1.206Z"/></svg>
