<?xml version="1.0" encoding="utf-8"?>
<!-- Generator: Adobe Illustrator 27.5.0, SVG Export Plug-In . SVG Version: 6.00 Build 0)  -->
<svg version="1.1" xmlns="http://www.w3.org/2000/svg" xmlns:xlink="http://www.w3.org/1999/xlink" x="0px" y="0px"
	 viewBox="0 0 750 500" style="enable-background:new 0 0 750 500;" xml:space="preserve">
<g id="BACKGROUND">
	<rect style="fill:#FFFFFF;" width="750" height="500"/>
</g>
<g id="OBJECTS">
	<g>
		<g>
			<path style="fill:#ECF3FE;" d="M694.337,350.917c-15.051-27.026-46.086-44.308-76.987-42.87
				c-11.56,0.538-22.92,3.467-34.487,3.824c-11.567,0.357-24.059-2.379-31.731-11.043c-8.955-10.113-8.92-25.452-5.36-38.482
				c3.56-13.03,10.079-25.198,12.613-38.465c4.188-21.929-3.65-45.775-20.033-60.942c-16.382-15.167-40.762-21.147-62.303-15.284
				c-33.941,9.239-58.643,44.669-93.806,45.58c-24.066,0.623-45.247-15.613-61.538-33.337
				c-16.291-17.724-30.472-38.155-51.031-50.679c-34.426-20.971-82.129-13.824-112.04,13.199
				c-29.911,27.023-42.118,70.671-35.222,110.387c2.335,13.445,6.654,26.576,7.606,40.189c0.952,13.613-2.078,28.419-12.113,37.666
				c-12.454,11.475-31.475,11.217-47.078,17.801c-19.566,8.257-33.417,28.58-33.947,49.81c-0.53,21.23,12.29,42.219,31.421,51.441
				l624.633,5.023C707.868,409.629,708.577,376.487,694.337,350.917z"/>
			<g>
				<path style="fill:#C9DBFE;" d="M179.982,261.149c17.519,11.168,30.33,28.513,36.961,48.202
					c6.519,19.356,6.309,40.895-0.534,60.136c1.007-2.003,3.826-3.767,5.881-3.581c2.392,0.217,4.491,1.632,6.395,3.097
					c20.331,15.642,31.109,42.815,27.028,68.14l-124.469-2.812c-18.369-7.886-37.829-16.673-48.581-33.526
					c-6.414-10.055-8.704-24.142-1.294-33.487c5.561-7.014,16.075-9.283,24.226-5.823c-17.25-10.271-29.938-27.142-35.688-46.465
					c-2.159-7.256-3.286-15.017-1.632-22.404c1.654-7.388,6.452-14.348,13.471-17.184c5.516-2.229,12.322-1.313,16.85,2.345
					c-10.369-12.708-16.59-30.338-14.804-46.385c0.992-8.915,4.431-18.202,11.893-23.178c7.179-4.787,16.931-4.567,24.744-0.906
					c7.813,3.661,13.875,10.327,18.448,17.644c1.374-2.913,5.346-5.333,8.481-6.072c3.135-0.739,6.438-0.377,9.562,0.411
					c9.097,2.294,17.2,8.297,22.043,16.331C183.808,243.667,182.201,252.034,179.982,261.149z"/>
				<path style="fill:none;stroke:#FFFFFF;stroke-linecap:round;stroke-linejoin:round;stroke-miterlimit:10;" d="M185.472,432.198
					c-19.994-67.368-45.527-133.092-76.254-196.29"/>
				<path style="fill:none;stroke:#FFFFFF;stroke-linecap:round;stroke-linejoin:round;stroke-miterlimit:10;" d="M87.644,299.962
					c14.812,15.734,37.291,23.888,58.746,21.309"/>
				<path style="fill:none;stroke:#FFFFFF;stroke-linecap:round;stroke-linejoin:round;stroke-miterlimit:10;" d="M157.555,241.903
					c0.228,19.131-7.747,38.224-21.515,51.51"/>
				<path style="fill:none;stroke:#FFFFFF;stroke-linecap:round;stroke-linejoin:round;stroke-miterlimit:10;" d="M93.592,378.738
					c22.701,15.447,52.691,19.627,78.751,10.976"/>
			</g>
			<g>
				<path style="fill:#C9DBFE;" d="M379.107,261.149c-17.519,11.168-30.33,28.513-36.961,48.202
					c-6.519,19.356-6.309,40.895,0.534,60.136c-1.008-2.003-3.826-3.767-5.881-3.581c-2.392,0.217-4.491,1.632-6.395,3.097
					c-20.331,15.642-31.109,42.815-27.028,68.14l124.47-2.812c18.369-7.886,37.829-16.673,48.581-33.526
					c6.414-10.055,8.704-24.142,1.294-33.487c-5.561-7.014-16.075-9.283-24.226-5.823c17.25-10.271,29.938-27.142,35.688-46.465
					c2.159-7.256,3.286-15.017,1.631-22.404c-1.654-7.388-6.452-14.348-13.471-17.184c-5.517-2.229-12.323-1.313-16.85,2.345
					c10.369-12.708,16.59-30.338,14.804-46.385c-0.992-8.915-4.431-18.202-11.893-23.178c-7.179-4.787-16.931-4.567-24.744-0.906
					c-7.813,3.661-13.875,10.327-18.448,17.644c-1.375-2.913-5.346-5.333-8.481-6.072c-3.135-0.739-6.438-0.377-9.562,0.411
					c-9.097,2.294-17.2,8.297-22.043,16.331C375.281,243.667,376.888,252.034,379.107,261.149z"/>
				<path style="fill:none;stroke:#FFFFFF;stroke-linecap:round;stroke-linejoin:round;stroke-miterlimit:10;" d="M373.617,432.198
					c19.994-67.368,45.527-133.092,76.254-196.29"/>
				<path style="fill:none;stroke:#FFFFFF;stroke-linecap:round;stroke-linejoin:round;stroke-miterlimit:10;" d="M471.446,299.962
					c-14.812,15.734-37.291,23.888-58.745,21.309"/>
				<path style="fill:none;stroke:#FFFFFF;stroke-linecap:round;stroke-linejoin:round;stroke-miterlimit:10;" d="M401.535,241.903
					c-0.228,19.131,7.747,38.224,21.514,51.51"/>
				<path style="fill:none;stroke:#FFFFFF;stroke-linecap:round;stroke-linejoin:round;stroke-miterlimit:10;" d="M465.497,378.738
					c-22.701,15.447-52.691,19.627-78.751,10.976"/>
			</g>
			<g>
				<path style="fill:none;stroke:#C9DBFE;stroke-width:2;stroke-linecap:round;stroke-linejoin:round;stroke-miterlimit:10;" d="
					M187.544,285.271c0.239-56.1-28.783-111.523-75.028-143.282"/>
				<path style="fill:#C9DBFE;" d="M180.715,211.805c0.974-2.563,2.234-5.106,4.288-6.92c2.055-1.814,5.053-2.766,7.615-1.79
					c2.798,1.067,4.406,4.169,4.565,7.159c0.159,2.99-0.859,5.907-1.945,8.698c-2.254,5.788-5.281,13.326-10.405,17.225
					c-6.841,5.205-7.156-8.962-6.875-12.233C178.313,219.797,179.236,215.697,180.715,211.805z"/>
				<path style="fill:#C9DBFE;" d="M151.588,153.797c0.974-2.563,2.234-5.106,4.288-6.92c2.055-1.814,5.053-2.766,7.615-1.789
					c2.798,1.067,4.406,4.169,4.565,7.159c0.159,2.99-0.859,5.907-1.945,8.698c-2.254,5.788-5.281,13.326-10.405,17.225
					c-6.841,5.205-7.156-8.962-6.875-12.233C149.186,161.789,150.109,157.689,151.588,153.797z"/>
				<path style="fill:#C9DBFE;" d="M92.047,134.542c-1.865-2.009-3.585-4.267-4.3-6.913c-0.715-2.646-0.238-5.756,1.774-7.618
					c2.197-2.034,5.69-2.1,8.441-0.916c2.75,1.184,4.914,3.39,6.932,5.602c4.188,4.587,9.601,10.644,10.822,16.966
					c1.631,8.44-11.206,2.438-14.013,0.736C98.144,140.239,94.879,137.593,92.047,134.542z"/>
				<path style="fill:#C9DBFE;" d="M145.92,188.746c-2.661-0.658-5.469-1.07-8.131-0.414c-2.661,0.656-5.151,2.58-5.806,5.242
					c-0.715,2.908,0.919,5.995,3.287,7.828c2.368,1.833,5.346,2.657,8.258,3.352c6.042,1.442,13.962,3.245,20.085,1.251
					c8.174-2.661-3.295-10.985-6.143-12.616C153.858,191.321,149.962,189.745,145.92,188.746z"/>
				<path style="fill:#C9DBFE;" d="M110.076,158.907c-2.633,0.764-5.269,1.815-7.243,3.717c-1.974,1.902-3.165,4.814-2.398,7.446
					c0.838,2.875,3.8,4.728,6.768,5.127c2.968,0.399,5.957-0.38,8.826-1.238c5.951-1.78,13.708-4.19,18.008-8.983
					c5.74-6.399-8.356-7.855-11.639-7.839C118.236,157.157,114.075,157.747,110.076,158.907z"/>
			</g>
			<g>
				<path style="fill:none;stroke:#C9DBFE;stroke-width:2;stroke-linecap:round;stroke-linejoin:round;stroke-miterlimit:10;" d="
					M367.524,286.182c-0.239-56.1,28.783-111.523,75.028-143.282"/>
				<path style="fill:#C9DBFE;" d="M374.353,212.716c-0.974-2.562-2.234-5.106-4.288-6.92c-2.055-1.814-5.054-2.766-7.615-1.79
					c-2.798,1.067-4.406,4.169-4.565,7.159c-0.159,2.99,0.859,5.907,1.945,8.698c2.254,5.788,5.281,13.326,10.405,17.225
					c6.841,5.205,7.156-8.962,6.875-12.233C376.754,220.708,375.831,216.607,374.353,212.716z"/>
				<path style="fill:#C9DBFE;" d="M403.48,154.708c-0.974-2.562-2.234-5.106-4.288-6.92c-2.055-1.814-5.054-2.766-7.615-1.79
					c-2.798,1.067-4.406,4.169-4.565,7.159c-0.159,2.99,0.859,5.907,1.945,8.698c2.254,5.788,5.281,13.326,10.405,17.225
					c6.841,5.205,7.156-8.962,6.875-12.233C405.882,162.699,404.958,158.599,403.48,154.708z"/>
				<path style="fill:#C9DBFE;" d="M463.02,135.452c1.865-2.009,3.585-4.267,4.3-6.913c0.715-2.646,0.238-5.756-1.774-7.618
					c-2.197-2.034-5.69-2.1-8.441-0.916c-2.75,1.184-4.914,3.39-6.932,5.602c-4.188,4.588-9.601,10.644-10.822,16.966
					c-1.631,8.44,11.206,2.438,14.013,0.736C456.923,141.149,460.188,138.503,463.02,135.452z"/>
				<path style="fill:#C9DBFE;" d="M409.147,189.656c2.661-0.658,5.469-1.07,8.131-0.414c2.661,0.656,5.151,2.58,5.806,5.242
					c0.715,2.908-0.919,5.996-3.287,7.828c-2.368,1.833-5.346,2.657-8.258,3.352c-6.042,1.442-13.962,3.245-20.085,1.251
					c-8.174-2.661,3.295-10.985,6.143-12.616C401.21,192.231,405.106,190.656,409.147,189.656z"/>
				<path style="fill:#C9DBFE;" d="M444.991,159.818c2.633,0.764,5.269,1.815,7.244,3.717c1.974,1.902,3.165,4.814,2.397,7.446
					c-0.838,2.875-3.8,4.728-6.768,5.127c-2.968,0.4-5.957-0.38-8.826-1.238c-5.951-1.78-13.708-4.189-18.008-8.983
					c-5.74-6.399,8.356-7.855,11.639-7.839C436.832,158.068,440.993,158.658,444.991,159.818z"/>
			</g>
			<g>
				<path style="fill:none;stroke:#C9DBFE;stroke-linecap:round;stroke-linejoin:round;stroke-miterlimit:10;" d="M98.376,377.755
					c-18.097-2.576-34.743-13.912-43.767-29.809"/>
				<path style="fill:none;stroke:#C9DBFE;stroke-linecap:round;stroke-linejoin:round;stroke-miterlimit:10;" d="M43.269,363.622
					c3.274,3.496,7.854,5.741,12.623,6.188c4.769,0.447,9.686-0.908,13.553-3.735"/>
				<path style="fill:none;stroke:#C9DBFE;stroke-linecap:round;stroke-linejoin:round;stroke-miterlimit:10;" d="M60.749,356.815
					c3.417-2.957,5.884-6.996,6.955-11.386c1.071-4.39,0.741-9.111-0.93-13.31"/>
				<path style="fill:none;stroke:#C9DBFE;stroke-linecap:round;stroke-linejoin:round;stroke-miterlimit:10;" d="M81.233,373.108
					c3.684-6.776,3.504-15.492-0.458-22.109"/>
				<path style="fill:#C9DBFE;" d="M43.692,357.594c2.288,1.293,3.095,4.196,1.802,6.484c-1.293,2.288-4.196,3.095-6.484,1.803
					c-2.288-1.293-3.095-4.196-1.802-6.484C38.501,357.108,41.403,356.302,43.692,357.594z"/>
				<path style="fill:#C9DBFE;" d="M55.982,341.118c2.288,1.293,3.095,4.196,1.802,6.484c-1.293,2.288-4.196,3.095-6.484,1.802
					c-2.288-1.293-3.095-4.196-1.802-6.484C50.791,340.633,53.694,339.826,55.982,341.118z"/>
				<path style="fill:#C9DBFE;" d="M67.081,325.868c2.288,1.293,3.095,4.196,1.802,6.484c-1.293,2.288-4.196,3.095-6.484,1.802
					c-2.288-1.293-3.095-4.196-1.802-6.484C61.89,325.382,64.793,324.575,67.081,325.868z"/>
				<path style="fill:#C9DBFE;" d="M81.823,343.74c2.288,1.293,3.095,4.196,1.803,6.484c-1.293,2.288-4.196,3.095-6.484,1.802
					c-2.288-1.293-3.095-4.196-1.802-6.484C76.632,343.254,79.535,342.447,81.823,343.74z"/>
			</g>
			<g>
				<path style="fill:none;stroke:#C9DBFE;stroke-linecap:round;stroke-linejoin:round;stroke-miterlimit:10;" d="M490.328,328.695
					c2.868-18.053,14.472-34.513,30.512-43.28"/>
				<path style="fill:none;stroke:#C9DBFE;stroke-linecap:round;stroke-linejoin:round;stroke-miterlimit:10;" d="M505.351,273.824
					c-3.549,3.217-5.868,7.76-6.392,12.521c-0.524,4.761,0.751,9.699,3.516,13.611"/>
				<path style="fill:none;stroke:#C9DBFE;stroke-linecap:round;stroke-linejoin:round;stroke-miterlimit:10;" d="M511.874,291.412
					c2.901,3.465,6.899,5.997,11.272,7.139c4.372,1.142,9.098,0.888,13.323-0.715"/>
				<path style="fill:none;stroke:#C9DBFE;stroke-linecap:round;stroke-linejoin:round;stroke-miterlimit:10;" d="M495.252,311.63
					c6.715,3.793,15.433,3.754,22.113-0.1"/>
				<path style="fill:#C9DBFE;" d="M511.371,274.344c-1.33,2.267-4.245,3.027-6.512,1.697s-3.027-4.245-1.697-6.512
					c1.33-2.267,4.245-3.027,6.512-1.697C511.94,269.162,512.7,272.077,511.371,274.344z"/>
				<path style="fill:#C9DBFE;" d="M527.646,286.899c-1.33,2.267-4.245,3.027-6.512,1.697c-2.267-1.33-3.027-4.245-1.697-6.512
					c1.33-2.267,4.245-3.027,6.512-1.697C528.215,281.717,528.975,284.632,527.646,286.899z"/>
				<path style="fill:#C9DBFE;" d="M542.714,298.244c-1.33,2.267-4.245,3.027-6.512,1.697c-2.267-1.33-3.027-4.245-1.697-6.512
					s4.245-3.027,6.512-1.697C543.284,293.061,544.044,295.977,542.714,298.244z"/>
				<path style="fill:#C9DBFE;" d="M524.607,312.695c-1.329,2.267-4.245,3.027-6.512,1.697c-2.267-1.33-3.027-4.245-1.697-6.512
					c1.33-2.267,4.245-3.027,6.512-1.697C525.177,307.512,525.936,310.428,524.607,312.695z"/>
			</g>
			<g>
				<path style="fill:none;stroke:#C9DBFE;stroke-linecap:round;stroke-linejoin:round;stroke-miterlimit:10;" d="M664.258,425.435
					c15.323-9.967,25.635-27.266,27.115-45.485"/>
				<path style="fill:none;stroke:#C9DBFE;stroke-linecap:round;stroke-linejoin:round;stroke-miterlimit:10;" d="M708.264,389.381
					c-1.495,4.551-4.7,8.518-8.836,10.934c-4.136,2.417-9.165,3.261-13.864,2.328"/>
				<path style="fill:none;stroke:#C9DBFE;stroke-linecap:round;stroke-linejoin:round;stroke-miterlimit:10;" d="M689.544,390.581
					c-4.345-1.24-8.285-3.862-11.108-7.391c-2.823-3.529-4.514-7.949-4.769-12.46"/>
				<path style="fill:none;stroke:#C9DBFE;stroke-linecap:round;stroke-linejoin:round;stroke-miterlimit:10;" d="M677.841,413.993
					c-6.198-4.59-9.71-12.569-8.908-20.24"/>
				<path style="fill:#C9DBFE;" d="M705.339,384.095c-1.53,2.137-1.037,5.11,1.1,6.639c2.137,1.53,5.11,1.037,6.639-1.1
					c1.53-2.137,1.037-5.11-1.1-6.639C709.841,381.465,706.869,381.957,705.339,384.095z"/>
				<path style="fill:#C9DBFE;" d="M687.247,374.338c-1.53,2.137-1.037,5.11,1.1,6.639c2.137,1.53,5.11,1.037,6.639-1.1
					c1.53-2.137,1.037-5.11-1.1-6.639C691.749,371.708,688.777,372.201,687.247,374.338z"/>
				<path style="fill:#C9DBFE;" d="M670.752,365.191c-1.53,2.137-1.037,5.11,1.1,6.639c2.137,1.53,5.11,1.037,6.639-1.1
					c1.53-2.137,1.037-5.11-1.1-6.639C675.254,362.561,672.281,363.054,670.752,365.191z"/>
				<path style="fill:#C9DBFE;" d="M664.922,387.612c-1.53,2.137-1.037,5.11,1.1,6.639c2.137,1.53,5.11,1.037,6.639-1.1
					c1.53-2.137,1.037-5.11-1.1-6.639C669.424,384.983,666.451,385.475,664.922,387.612z"/>
			</g>
			<g>
				<path style="fill:none;stroke:#C9DBFE;stroke-linecap:round;stroke-linejoin:round;stroke-miterlimit:10;" d="M354.832,228.848
					c-11.854-13.916-16.817-33.433-13.05-51.321"/>
				<path style="fill:none;stroke:#C9DBFE;stroke-linecap:round;stroke-linejoin:round;stroke-miterlimit:10;" d="M322.904,181.762
					c0.138,4.788,2.082,9.503,5.359,12.997c3.277,3.493,7.859,5.734,12.628,6.177"/>
				<path style="fill:none;stroke:#C9DBFE;stroke-linecap:round;stroke-linejoin:round;stroke-miterlimit:10;" d="M340.509,188.239
					c4.519,0.048,9.042-1.344,12.752-3.924c3.71-2.58,6.59-6.335,8.118-10.588"/>
				<path style="fill:none;stroke:#C9DBFE;stroke-linecap:round;stroke-linejoin:round;stroke-miterlimit:10;" d="M345.066,214.014
					c7.248-2.637,12.885-9.287,14.3-16.868"/>
				<path style="fill:#C9DBFE;" d="M327.213,177.526c0.858,2.484-0.46,5.194-2.944,6.052c-2.484,0.858-5.194-0.46-6.052-2.944
					c-0.858-2.484,0.46-5.193,2.944-6.052C323.645,173.724,326.355,175.042,327.213,177.526z"/>
				<path style="fill:#C9DBFE;" d="M347.333,173.322c0.858,2.484-0.46,5.193-2.944,6.052c-2.484,0.858-5.193-0.46-6.052-2.944
					c-0.858-2.484,0.46-5.194,2.944-6.052C343.766,169.52,346.475,170.838,347.333,173.322z"/>
				<path style="fill:#C9DBFE;" d="M365.749,169.247c0.858,2.484-0.46,5.194-2.944,6.052c-2.484,0.858-5.194-0.46-6.052-2.944
					c-0.858-2.484,0.46-5.194,2.944-6.052C362.182,165.445,364.891,166.762,365.749,169.247z"/>
				<path style="fill:#C9DBFE;" d="M364.958,192.4c0.858,2.484-0.46,5.194-2.944,6.052c-2.484,0.858-5.193-0.46-6.052-2.944
					c-0.858-2.484,0.46-5.193,2.944-6.052C361.391,188.598,364.1,189.916,364.958,192.4z"/>
			</g>
			<path style="fill:#C9DBFE;" d="M684.589,174.644c-2.756-2.254-6.798-2.357-9.659-0.238c-1.651,1.222-2.67,2.913-3.055,4.714
				c-0.677,3.162-1.952,6.151-3.894,8.682l-7.544-7.752c-4.293-4.411-11.346-4.507-15.752-0.219l-19.929,19.395
				c-4.411,4.293-4.502,11.341-0.209,15.752l19.39,19.924c4.293,4.411,11.341,4.512,15.752,0.219l7.789-7.58
				c-2.575-2.027-5.637-3.341-8.887-4.037c-1.803-0.382-3.492-1.404-4.716-3.055c-2.116-2.857-2.014-6.898,0.236-9.659
				c3.052-3.728,8.564-3.884,11.825-0.533c1.166,1.199,1.877,2.675,2.13,4.213c0.529,3.24,1.744,6.311,3.733,8.866l7.82-7.611
				c4.406-4.287,4.502-11.341,0.209-15.752l-7.581-7.79c2.52-1.896,5.513-3.071,8.664-3.591c1.536-0.253,3.013-0.962,4.214-2.131
				C688.475,183.201,688.318,177.693,684.589,174.644z"/>
			<path style="fill:#C9DBFE;" d="M209.484,148.49c2.665,2.36,6.7,2.622,9.642,0.617c1.698-1.157,2.782-2.806,3.238-4.59
				c0.8-3.132,2.192-6.07,4.232-8.523l7.234,8.042c4.116,4.576,11.16,4.949,15.731,0.838l20.675-18.598
				c4.576-4.116,4.943-11.155,0.827-15.731l-18.593-20.67c-4.116-4.576-11.155-4.954-15.731-0.837l-8.08,7.268
				c2.493,2.127,5.502,3.56,8.722,4.383c1.787,0.452,3.435,1.54,4.592,3.238c2.003,2.938,1.742,6.972-0.615,9.642
				c-3.196,3.605-8.709,3.545-11.836,0.069c-1.118-1.243-1.771-2.747-1.963-4.294c-0.401-3.258-1.494-6.374-3.382-9.006
				l-8.113,7.298c-4.571,4.111-4.943,11.155-0.827,15.731l7.269,8.081c-2.593,1.795-5.629,2.853-8.799,3.248
				c-1.545,0.193-3.048,0.843-4.295,1.964C205.937,139.788,205.878,145.297,209.484,148.49z"/>
			<path style="fill:#C9DBFE;" d="M519.33,87.901c-1.508,1.703-1.675,4.281-0.394,6.161c0.739,1.085,1.793,1.778,2.933,2.069
				c2.002,0.511,3.878,1.401,5.446,2.704l-5.139,4.622c-2.924,2.63-3.162,7.131-0.535,10.052l11.883,13.211
				c2.63,2.924,7.128,3.158,10.052,0.528l13.207-11.88c2.924-2.63,3.165-7.128,0.535-10.052l-4.644-5.163
				c-1.359,1.593-2.275,3.515-2.8,5.573c-0.289,1.142-0.984,2.195-2.069,2.934c-1.877,1.28-4.455,1.113-6.161-0.393
				c-2.303-2.042-2.265-5.565-0.044-7.563c0.794-0.715,1.755-1.131,2.744-1.254c2.082-0.256,4.073-0.955,5.755-2.161l-4.663-5.184
				c-2.627-2.92-7.128-3.158-10.052-0.528l-5.164,4.645c-1.147-1.657-1.823-3.597-2.076-5.622c-0.123-0.987-0.539-1.948-1.255-2.744
				C524.89,85.635,521.37,85.597,519.33,87.901z"/>
			<path style="fill:#C9DBFE;" d="M62.549,235.939c1.508,1.703,1.675,4.281,0.394,6.161c-0.739,1.085-1.793,1.778-2.933,2.069
				c-2.002,0.511-3.878,1.401-5.446,2.704l5.139,4.622c2.924,2.63,3.162,7.131,0.535,10.051l-11.883,13.211
				c-2.63,2.924-7.128,3.159-10.052,0.528l-13.207-11.88c-2.924-2.63-3.165-7.128-0.535-10.051l4.644-5.163
				c1.359,1.593,2.274,3.515,2.8,5.573c0.289,1.142,0.984,2.195,2.069,2.934c1.877,1.28,4.455,1.113,6.161-0.393
				c2.304-2.042,2.265-5.565,0.044-7.563c-0.795-0.715-1.755-1.131-2.743-1.254c-2.082-0.257-4.073-0.955-5.755-2.161l4.663-5.184
				c2.627-2.92,7.128-3.159,10.052-0.528l5.164,4.645c1.147-1.657,1.823-3.597,2.075-5.622c0.123-0.987,0.539-1.948,1.255-2.744
				C56.988,233.673,60.508,233.635,62.549,235.939z"/>
			<g>
				
					<ellipse transform="matrix(0.7071 -0.7071 0.7071 0.7071 23.5965 281.8762)" style="fill:none;stroke:#C9DBFE;stroke-width:1.515;stroke-miterlimit:10;" cx="352.053" cy="112.455" rx="22.767" ry="22.767"/>
				<circle style="fill:none;stroke:#C9DBFE;stroke-width:1.515;stroke-miterlimit:10;" cx="352.053" cy="112.455" r="18.281"/>
				
					<ellipse transform="matrix(0.7071 -0.7071 0.7071 0.7071 23.5965 281.8762)" style="fill:none;stroke:#C9DBFE;stroke-width:1.515;stroke-miterlimit:10;" cx="352.053" cy="112.455" rx="12.243" ry="12.243"/>
				<circle style="fill:none;stroke:#C9DBFE;stroke-width:1.515;stroke-miterlimit:10;" cx="352.053" cy="112.455" r="5.699"/>
				<g>
					<polygon style="fill:#C9DBFE;" points="389.661,80.669 383.271,80.669 383.252,80.688 383.252,74.335 374.82,82.767 
						374.82,88.635 374.309,89.1 374.82,89.1 374.82,89.687 375.354,89.1 381.229,89.1 					"/>
					
						<line style="fill:none;stroke:#E54551;stroke-width:1.515;stroke-linecap:round;stroke-linejoin:round;stroke-miterlimit:10;" x1="352.053" y1="112.455" x2="380.744" y2="83.763"/>
				</g>
			</g>
			<g>
				<path style="fill:#C9DBFE;" d="M40.101,90.421c-0.392-0.735-0.494-1.571-0.308-2.508l1.262-6.245l-5.724-10.743l-1.903,1.014
					l3.298,6.19l-2.473,1.317l-3.355-6.297c-0.714-1.34-0.152-2.499,1.686-3.479c0.202-0.107,0.488-0.249,0.859-0.423
					c0.371-0.175,0.634-0.303,0.788-0.386l-1.27-2.384l2.152-1.147l1.27,2.383c0.142-0.076,0.386-0.217,0.733-0.425
					c0.347-0.207,0.614-0.362,0.804-0.463c1.838-0.98,3.114-0.799,3.828,0.541l2.91,5.461c0.398,0.747,0.508,1.595,0.327,2.543
					l-1.19,6.252l6.113,11.472l1.849-0.986l-3.611-6.777l2.473-1.318l3.668,6.883c0.714,1.34,0.152,2.499-1.686,3.479
					c-0.19,0.101-0.465,0.24-0.827,0.418c-0.362,0.178-0.615,0.304-0.757,0.38l1.261,2.366l-2.152,1.147l-1.261-2.366
					c-0.154,0.082-0.409,0.226-0.764,0.431c-0.355,0.204-0.633,0.36-0.835,0.468c-1.838,0.98-3.114,0.799-3.828-0.541L40.101,90.421
					z M42.46,74.663l-3.128-5.87l-1.849,0.986l4.388,8.235L42.46,74.663z M47.756,94.244l-4.777-8.964l-0.68,3.309l3.554,6.67
					L47.756,94.244z"/>
			</g>
			<g>
				<path style="fill:#C9DBFE;" d="M517.937,220.25c-0.714,1.34-1.99,1.52-3.828,0.541c-0.202-0.107-0.48-0.264-0.835-0.468
					c-0.356-0.205-0.61-0.348-0.764-0.431l-1.261,2.366l-2.152-1.147l1.261-2.366c-0.142-0.076-0.395-0.202-0.757-0.38
					c-0.362-0.178-0.638-0.317-0.827-0.418c-1.838-0.98-2.4-2.139-1.686-3.479l3.668-6.883l2.473,1.318l-3.611,6.777l1.849,0.986
					l6.113-11.472l-1.19-6.252c-0.18-0.949-0.071-1.796,0.327-2.543l2.91-5.461c0.714-1.34,1.99-1.52,3.828-0.541
					c0.19,0.101,0.457,0.255,0.804,0.463c0.346,0.207,0.591,0.349,0.733,0.425l1.27-2.383l2.152,1.147l-1.27,2.383
					c0.154,0.082,0.417,0.211,0.788,0.386c0.37,0.175,0.657,0.316,0.859,0.423c1.838,0.98,2.4,2.139,1.686,3.479l-3.355,6.297
					l-2.473-1.318l3.298-6.19l-1.903-1.014l-5.724,10.743l1.262,6.245c0.186,0.937,0.083,1.773-0.308,2.508L517.937,220.25z
					 M519.503,201.582l4.388-8.235l-1.849-0.986l-3.128,5.87L519.503,201.582z M515.521,218.826l3.554-6.67l-0.68-3.309
					l-4.777,8.964L515.521,218.826z"/>
			</g>
			<g>
				<path style="fill:#C9DBFE;" d="M711.476,331.987c-0.392-0.735-0.494-1.571-0.308-2.508l1.262-6.245l-5.724-10.743l-1.903,1.014
					l3.298,6.19l-2.473,1.318l-3.355-6.297c-0.714-1.34-0.152-2.499,1.686-3.479c0.202-0.107,0.488-0.249,0.859-0.423
					c0.371-0.175,0.634-0.303,0.788-0.386l-1.27-2.383l2.152-1.147l1.27,2.383c0.142-0.076,0.386-0.218,0.733-0.425
					c0.346-0.207,0.614-0.362,0.804-0.463c1.838-0.979,3.114-0.799,3.828,0.541l2.91,5.461c0.398,0.747,0.508,1.595,0.327,2.543
					l-1.19,6.252l6.113,11.472l1.849-0.986l-3.611-6.777l2.473-1.318l3.668,6.884c0.714,1.34,0.152,2.499-1.686,3.479
					c-0.19,0.101-0.465,0.24-0.827,0.418c-0.362,0.178-0.615,0.304-0.757,0.38l1.261,2.366l-2.152,1.147l-1.261-2.366
					c-0.154,0.082-0.409,0.225-0.764,0.431c-0.355,0.204-0.634,0.36-0.835,0.468c-1.838,0.98-3.114,0.799-3.828-0.541
					L711.476,331.987z M713.835,316.228l-3.128-5.87l-1.849,0.986l4.388,8.235L713.835,316.228z M719.131,335.809l-4.777-8.964
					l-0.68,3.309l3.554,6.67L719.131,335.809z"/>
			</g>
		</g>
		<g>
			<g>
				<path style="fill:#1B141C;" d="M109.672,258.806c1.119-0.267,2.289-0.14,3.439-0.116c1.151,0.025,2.366-0.076,3.318-0.723
					c1.141-0.776,1.691-2.314,1.324-3.644c-0.367-1.33-1.496-2.316-2.869-2.457c0.735-1.632,0.147-3.749-1.325-4.768
					c-1.472-1.019-3.434-0.837-4.703,0.426c0.465-0.743,0.352-1.763-0.167-2.469c-0.519-0.706-1.382-1.11-2.253-1.197
					c-0.872-0.087-1.752,0.116-2.564,0.443c-1.54,0.619-2.653,1.855-3.608,3.213c-0.252-1.023-1.341-1.694-2.394-1.69
					c-1.053,0.005-2.04,0.569-2.788,1.31c-1.544,1.528-2.162,3.868-1.66,5.981c-0.163-0.724-1.054-1.101-1.771-0.914
					c-0.718,0.188-1.258,0.787-1.626,1.431c-0.914,1.598-0.999,3.582-0.506,5.356c0.493,1.774,1.518,3.359,2.71,4.763
					C97.82,261.449,103.788,260.209,109.672,258.806z"/>
				<path style="fill:#DA2727;" d="M127.435,321.602c0.342,0.397,0.738,0.757,1.199,1.057c2.547,1.658,5.925,1.003,7.686-1.433
					C133.413,320.456,130.255,320.573,127.435,321.602z"/>
				<path style="fill:#FF5754;" d="M149.198,301.465c0.792-1.218,0.709-2.864-0.307-3.998c-1.215-1.357-3.299-1.471-4.656-0.256
					l-10.683,9.567c-0.197-0.358-0.386-0.721-0.584-1.079c-1.421-2.558-2.892-5.083-4.411-7.579
					c-1.495-2.511-3.076-4.967-4.693-7.401c-1.648-2.414-3.326-4.809-5.198-7.081c-1.929-2.342-5.269-3.184-8.144-1.837
					c-3.405,1.595-4.872,5.648-3.277,9.053c1.249,2.666,2.691,5.21,4.164,7.735c1.504,2.505,3.043,4.988,4.669,7.416
					c1.602,2.443,3.251,4.856,4.951,7.237c1.703,2.379,3.437,4.738,5.298,7.018l1.021,1.253c0.026,0.032,0.059,0.059,0.086,0.09
					c2.821-1.03,5.978-1.146,8.886-0.376c0.055-0.076,0.113-0.148,0.165-0.228L149.198,301.465z"/>
				<path style="fill:#8E0A81;" d="M115.678,281.328l-4.091-1.479l4.952,26.858l12.309-9.81l-9.096-12.508
					C118.73,282.985,117.311,281.919,115.678,281.328z"/>
				<rect x="98.772" y="271.694" style="fill:#FF5754;" width="10.691" height="14.415"/>
				<path style="fill:#DA2727;" d="M109.464,271.694v4.459c-2.435,0.101-8.02-0.155-10.294-4.439l1.565-0.02H109.464z"/>
				<path style="fill:#FF5754;" d="M90.851,395.009c-0.045-0.025-0.088-0.053-0.132-0.077c-0.861-0.479-1.707-0.986-2.524-1.53
					l-11.714,17.125c-1.146,1.672-0.938,3.977,0.584,5.411c1.683,1.586,4.333,1.508,5.919-0.175l16.231-17.221
					C96.403,397.657,93.539,396.489,90.851,395.009z"/>
				<polygon style="fill:#28266E;" points="119.432,353.226 109.914,387.122 92.906,406.456 84.262,397.465 95.506,381.489 
					98.603,354.331 107.82,343.148 				"/>
				<polyline style="fill:none;stroke:#363495;stroke-width:0.75;stroke-miterlimit:10;" points="86.78,397.006 97.56,382.709 
					98.184,371.135 				"/>
				<path style="fill:#FF5754;" d="M118.752,328.77H89.483l-1.166-39.723c-0.105-3.575,1.845-6.756,4.787-7.754l10.531-3.573
					l11.391,3.639c2.993,0.956,4.994,4.165,4.888,7.785L118.752,328.77z"/>
				<path style="fill:#FF5754;" d="M115.59,352.373H92.645c-3.136,0-5.455-4.071-4.969-8.643l1.886-17.732h29.112l1.886,17.732
					C121.046,348.302,118.726,352.373,115.59,352.373z"/>
				<g>
					<path style="fill:#FF5754;" d="M108.203,400.498l2.436,23.233c0.215,2.068,1.926,3.714,4.062,3.787
						c2.335,0.08,4.293-1.748,4.373-4.083l0.774-22.533C115.96,401.078,112.079,400.993,108.203,400.498z"/>
				</g>
				<path style="fill:#FF5754;" d="M114.858,261.479c0-7.064-4.725-12.79-10.552-12.79c-5.828,0-10.552,5.726-10.552,12.79
					c0,2.209,0.467,4.424,1.426,6.417c0.862,1.793,2.128,3.41,3.749,4.575c1.007,0.724,2.189,1.279,3.405,1.537
					c0.808,0.172,1.679,0.135,2.501,0.146c0.902,0.013,1.805,0.001,2.707-0.035c1.049-0.042,2.157-0.093,3.159-0.436
					c0.887-0.303,1.702-0.841,2.339-1.527c1.097-1.18,1.701-2.762,1.701-4.37v-4.494
					C114.81,262.699,114.858,262.096,114.858,261.479z"/>
				<g>
					<path style="fill:#FF5754;" d="M96.102,261.39c-0.379-0.674-1.293-1.061-2.157-0.997c-0.864,0.064-1.649,0.533-2.123,1.16
						c-0.474,0.627-0.656,1.396-0.628,2.144c0.029,0.772,0.285,1.553,0.831,2.165c0.546,0.612,1.403,1.036,2.298,1.034
						c0.895-0.003,1.793-0.478,2.104-1.202L96.102,261.39z"/>
					<g>
						
							<path style="fill:none;stroke:#DA2727;stroke-width:0.4623;stroke-linecap:round;stroke-linejoin:round;stroke-miterlimit:10;" d="
							M94.058,265.547c0.684-1.272,0.585-2.799-0.26-4.006"/>
						
							<path style="fill:none;stroke:#DA2727;stroke-width:0.4623;stroke-linecap:round;stroke-linejoin:round;stroke-miterlimit:10;" d="
							M94.311,263.284c-0.719,0.316-1.277,0.862-1.524,1.491"/>
					</g>
				</g>
				<g>
					<path style="fill:#1B141C;" d="M109.109,419.642c0,0.074,0,0.154,0.006,0.234c0.006,0.481,0.037,1,0.062,1.524
						c0.025,0.37,0.049,0.74,0.074,1.117c0.043,0.531,0.086,1.068,0.136,1.592c0.099,1.142,0.216,2.215,0.315,3.085
						c0.136,1.222,0.241,2.036,0.241,2.036l26.737-0.018c0,0,0.759-0.87,0.006-2.018c-1.098-1.709-3.147-4.048-6.553-5.183
						c-3.739-1.253-5.998-2.906-7.516-4.554c-0.043-0.056-0.093-0.099-0.13-0.154c-0.463-0.5-0.839-1.012-1.179-1.506
						c-0.043-0.049-0.08-0.111-0.111-0.167c-0.173-0.265-0.327-0.518-0.487-0.765c-0.562-0.926-1.432-0.518-2.296,0.327
						c-1.839,1.802-4.616,2.302-6.979,1.283c-0.759-0.333-1.432-0.512-1.82-0.376c-0.271,0.105-0.42,0.728-0.475,1.654
						C109.103,418.291,109.097,418.939,109.109,419.642z"/>
					<path style="fill:#D5D5D1;" d="M109.702,427.191c-0.082,1.218-0.072,2.043-0.072,2.043l27.056-0.023
						c0,0,0.757-0.869-0.001-2.021H109.702z"/>
					<path style="fill:#D5D5D1;" d="M119.21,417.693l0.808,1.038c0.135,0.175,0.391,0.202,0.559,0.067l1.907-1.496
						c-0.458-0.498-0.835-1.011-1.179-1.502c-0.04-0.054-0.074-0.115-0.108-0.169l-1.92,1.503
						C119.102,417.268,119.069,417.525,119.21,417.693z"/>
					<path style="fill:#D5D5D1;" d="M109.109,419.642c0,0.074,0,0.154,0.006,0.234l0.605,0.074c0.222,0.031,0.426-0.13,0.444-0.345
						l0.16-1.308c0.031-0.222-0.13-0.42-0.346-0.444l-0.839-0.099C109.103,418.291,109.097,418.939,109.109,419.642z"/>
					<path style="fill:#D5D5D1;" d="M117.34,422.463c0,1.12-0.908,2.029-2.029,2.029c-1.12,0-2.029-0.908-2.029-2.029
						c0-1.12,0.908-2.029,2.029-2.029C116.432,420.435,117.34,421.343,117.34,422.463z"/>
				</g>
				<g>
					<path style="fill:#1B141C;" d="M95.173,427.209c-1.098-1.709-3.147-4.048-6.553-5.183c-0.267-0.089-0.512-0.184-0.761-0.278
						c-0.72-2.157-0.92-3.981-0.856-5.542c0.009-0.07,0.004-0.135,0.017-0.201c0.026-0.681,0.122-1.309,0.231-1.898
						c0.004-0.065,0.022-0.135,0.039-0.196c0.065-0.31,0.135-0.598,0.196-0.886c0.257-1.052-0.646-1.379-1.854-1.392
						c-2.574-0.026-4.891-1.636-5.842-4.027c-0.301-0.772-0.65-1.374-1.021-1.553c-0.266-0.118-0.812,0.218-1.505,0.833
						c-0.406,0.353-0.868,0.807-1.357,1.313c-0.052,0.052-0.109,0.109-0.161,0.17c-0.336,0.345-0.681,0.733-1.034,1.121
						c-0.244,0.279-0.489,0.558-0.737,0.842c-0.345,0.406-0.694,0.816-1.03,1.222c-0.737,0.877-1.414,1.719-1.959,2.404
						c-0.768,0.96-1.27,1.61-1.27,1.61l13.669,13.65l1.014-1.014l0.206,0.199h3.142v0.828l7.42-0.005
						C95.167,429.227,95.926,428.357,95.173,427.209z"/>
					<path style="fill:#D5D5D1;" d="M95.186,427.191H84.224l-13.236-13.236c-0.919,0.804-1.496,1.394-1.496,1.394l13.882,13.859
						v0.01l11.813-0.006C95.187,429.212,95.943,428.342,95.186,427.191z"/>
					<path style="fill:#D5D5D1;" d="M84.428,413.962l-0.162,1.305c-0.029,0.219,0.133,0.419,0.348,0.443l2.406,0.291
						c0.029-0.676,0.124-1.305,0.229-1.896c0.01-0.067,0.029-0.133,0.043-0.195l-2.42-0.295
						C84.652,413.586,84.447,413.743,84.428,413.962z"/>
					<path style="fill:#D5D5D1;" d="M75.907,408.198c-0.052,0.052-0.109,0.109-0.161,0.17l0.375,0.48
						c0.135,0.179,0.393,0.21,0.558,0.07l1.038-0.811c0.179-0.135,0.205-0.388,0.07-0.559l-0.524-0.663
						C76.858,407.238,76.396,407.692,75.907,408.198z"/>
					<path style="fill:#D5D5D1;" d="M79.732,416.013c-0.792,0.792-2.077,0.792-2.869,0c-0.792-0.792-0.792-2.077,0-2.869
						c0.792-0.792,2.077-0.792,2.869,0C80.524,413.937,80.524,415.221,79.732,416.013z"/>
				</g>
				<path style="fill:#201F59;" d="M121.622,386.68l0.108-3.587c0.045-1.504-0.268-2.998-0.913-4.358l-1.262-2.658
					C117.908,379.78,119.813,383.448,121.622,386.68z"/>
				<path style="fill:#363495;" d="M119.554,376.078l-2.693-5.672l-8.351-17.18h10.77h0.151c1.231-4.46,1.883-7.979,1.443-12.073
					l-2.072-14.119H89.238l-2.657,15.345c-0.542,4.797,0.236,9.648,2.273,14.025c2.497,5.367,6.652,13.414,12.906,23.013
					l4.171,5.114l2.017,23.414l13.064-1.06l0.61-20.205C119.813,383.448,117.908,379.78,119.554,376.078z"/>
				<path style="fill:#8E0A81;" d="M119.91,332.013c1.396-14.564,1.452-29.167,0.432-43.749c-0.227-3.238-2.326-6.046-5.371-7.169
					l-3.383-1.246c-0.123,2.374-1.665,4.596-3.801,5.639c-2.137,1.042-4.779,0.912-6.857-0.243
					c-2.078-1.155-3.567-3.276-4.055-5.603l-4.133,1.72c-2.772,1.154-4.67,3.746-4.965,6.734
					c-1.428,14.473-1.092,29.004,0.321,43.519C98.407,334.145,109.628,334.664,119.91,332.013z"/>
				<g>
					<path style="fill:#FC931D;" d="M84.547,323.547L84.547,323.547c-2.863-5.713-0.552-12.665,5.161-15.528l51.825-25.97
						c5.713-2.863,12.665-0.552,15.528,5.161l0,0c2.863,5.713,0.552,12.665-5.161,15.528l-51.825,25.97
						C94.362,331.57,87.41,329.26,84.547,323.547z"/>
					<path style="fill:#252575;" d="M157.061,287.21c2.863,5.713,0.552,12.665-5.161,15.528c-5.713,2.863-12.665,0.552-15.528-5.161
						c-2.863-5.713-0.552-12.665,5.161-15.528C147.245,279.186,154.198,281.496,157.061,287.21z"/>
					<path style="fill:#3838B0;" d="M155.377,288.053c2.397,4.784,0.462,10.604-4.321,13.001
						c-4.783,2.397-10.604,0.462-13.001-4.321c-2.397-4.783-0.462-10.604,4.321-13.001
						C147.159,281.335,152.98,283.27,155.377,288.053z"/>
					<g>
						<path style="fill:#252575;" d="M143.917,293.799L143.917,293.799c-0.685-1.368-0.132-3.032,1.236-3.718l2.724-1.365
							c1.368-0.685,3.032-0.132,3.718,1.236l0,0c0.685,1.368,0.132,3.032-1.236,3.718l-2.724,1.365
							C146.267,295.72,144.603,295.167,143.917,293.799z"/>
						<path style="fill:#31319C;" d="M151.595,289.952c0.685,1.368,0.132,3.032-1.236,3.718c-1.368,0.685-3.032,0.132-3.718-1.236
							c-0.685-1.368-0.132-3.032,1.236-3.718C149.245,288.031,150.91,288.584,151.595,289.952z"/>
					</g>
					<path style="fill:#3838B0;" d="M120.202,318.626l-20.123,10.084c-5.712,2.862-12.672,0.549-15.534-5.163
						c-2.862-5.712-0.545-12.665,5.167-15.527l20.123-10.084c-5.712,2.862-8.021,9.812-5.159,15.523
						C107.537,319.171,114.49,321.488,120.202,318.626z"/>
					<g>
						<g>
							
								<rect x="131.901" y="296.815" transform="matrix(0.894 -0.4481 0.4481 0.894 -120.0984 91.0151)" style="fill:#252575;" width="0.823" height="5.045"/>
						</g>
						<g>
							
								<rect x="129.79" y="298.926" transform="matrix(0.894 -0.448 0.448 0.894 -120.0807 90.9936)" style="fill:#252575;" width="5.045" height="0.823"/>
						</g>
					</g>
					<g>
						<g>
							
								<rect x="85.725" y="321.007" transform="matrix(0.894 -0.448 0.448 0.894 -134.6415 73.5924)" style="fill:#FC931D;" width="5.045" height="0.823"/>
						</g>
					</g>
				</g>
				<g>
					<path style="fill:#DA2727;" d="M65.967,305.195c-0.418,0.634-0.72,1.359-0.869,2.151c-0.415,2.201,0.452,4.347,2.075,5.669
						C68.044,310.409,67.181,307.802,65.967,305.195z"/>
					<path style="fill:#FF5754;" d="M104.222,315.968c-3.618-0.216-6.902-2.093-9.238-4.811l-10.697-4.493
						c1.368-1.085,2.725-2.181,4.059-3.304c1.054-0.867,2.088-1.757,3.111-2.66c0.038-6.266,0.2-12.53,0.253-18.795
						c-0.272,0.13-0.541,0.272-0.801,0.442c-2.22,1.451-4.289,3.074-6.335,4.724c-2.022,1.678-4.015,3.387-5.942,5.174
						c-1.945,1.765-3.853,3.573-5.722,5.425c-1.867,1.855-3.708,3.739-5.452,5.735l-1.024,1.17
						c-0.169,0.195-0.325,0.402-0.468,0.619c1.214,2.607,2.077,5.213,1.205,7.82c0.737,0.6,1.63,1.031,2.63,1.219l31.096,5.857
						c1.363,0.257,2.769-0.459,3.328-1.79C104.554,317.524,104.526,316.688,104.222,315.968z"/>
				</g>
				<path style="fill:#FF5754;" d="M94.285,317.835c0,0,8.297,2.93,10.175,3.819c1.879,0.889,3.503,1.326,4.043,1.256
					c0.54-0.07-0.291-1.565-3.075-2.782c0,0,3.51,1.289,5.32,0.981c1.81-0.308-3.063-2.228-4.767-2.613c0,0,4.468,0.994,6.303,0.466
					c1.834-0.529-3.712-2.16-6.001-2.395c0,0,4.661,0.149,5.835-0.536c1.174-0.684-3.92-1.291-6.014-1.258
					c-2.094,0.033-2.584-0.73-2.245-0.994c0.339-0.264,1.778-1.114,2.57-1.455c0.495-0.213,1.451-1.346,0.656-1.501
					c-0.477-0.093-1.84,0.386-2.647,0.697c-2.151,0.829-5.954,1.817-7.669,1.617c-1.715-0.2-2.393-0.351-2.393-0.351L94.285,317.835
					z"/>
				<path style="fill:#8E0A81;" d="M91.806,281.712c-2.354,0.961-4.523,2.324-6.411,4.027l-8.546,7.71l9.676,12.054l6.11-4.668
					l1.118-14.727l3.119-6.466L91.806,281.712z"/>
				<polygon style="fill:#730868;" points="74.875,295.23 84.95,306.707 86.525,305.503 76.849,293.449 				"/>
				<polygon style="fill:#201F59;" points="83.08,397.069 93.15,407.183 96.388,404.299 84.81,394.318 				"/>
				<polygon style="fill:#201F59;" points="107.657,408.762 121.927,408.483 122.083,404.149 106.867,405.61 				"/>
				<polygon style="fill:#DA2727;" points="84.625,398.62 83.622,400.086 90.224,408.081 92.082,406.11 				"/>
				<polygon style="fill:#DA2727;" points="109.067,408.734 119.587,408.528 119.492,411.284 109.232,410.315 				"/>
				<path style="fill:#730868;" d="M113.54,280.572c-0.31,2.81-2.2,5.41-4.75,6.65c-2.7,1.32-6.03,1.15-8.65-0.31
					c-2.47-1.36-4.28-3.82-5-6.55l1.73-0.72c0.49,2.33,1.98,4.45,4.06,5.6c2.08,1.16,4.72,1.29,6.85,0.25
					c2.14-1.05,3.68-3.27,3.81-5.64L113.54,280.572z"/>
				<path style="fill:#730868;" d="M120.09,329.992c-0.05,0.67-0.12,1.35-0.18,2.02c-10.28,2.65-21.5,2.13-31.81-0.4
					c-0.07-0.68-0.13-1.37-0.19-2.05C98.36,332.052,109.67,332.552,120.09,329.992z"/>
				<path style="fill:none;stroke:#201F59;stroke-width:0.75;stroke-miterlimit:10;" d="M109.716,407.183l-1.513-23.636
					c0,0-15.771-22.73-17.515-29.769"/>
				<path style="fill:#1B141C;" d="M115.914,257.213c-1.191,1.318-2.917,2.138-4.691,2.227c-0.687,0.035-1.42-0.052-1.961-0.477
					c-0.541-0.425-0.79-1.272-0.381-1.825c-1.042,1.006-2.2,1.974-3.482,2.647c-1.283,0.673-2.835,0.969-4.193,0.465
					c-0.294-0.109-0.582-0.26-0.787-0.498c-0.205-0.238-0.313-0.576-0.214-0.874c-0.253,0.615-0.554,1.109-0.92,1.664
					c-0.366,0.555-0.856,1.047-1.466,1.31c-0.611,0.262-1.353,0.267-1.915-0.088c-0.216,1.277-1.782,2.001-3.024,1.634
					c-1.241-0.368-2.09-1.601-2.296-2.879c-0.206-1.278,0.131-2.586,0.629-3.782c1.709-4.101,5.429-7.307,9.737-8.391
					c2.445-0.615,5.105-0.558,7.412,0.46c1.732,0.764,3.204,2.035,4.433,3.475S114.912,255.606,115.914,257.213z"/>
			</g>
			<g>
				<path style="fill:#1B141C;" d="M420.311,290.186c-2.332,2.307-4.961,4.755-8.234,4.98c-2.565,0.177-5.03-1.087-7.03-2.702
					c-2.001-1.615-3.388-3.97-5.515-5.414c-2.306-1.566-4.49-3.455-5.769-5.932c-1.278-2.477-1.501-5.639,0.007-7.984
					c0.89-1.384,2.273-2.36,3.493-3.465c1.22-1.105,2.355-2.494,2.46-4.137c0.122-1.917-1.164-3.599-1.816-5.406
					c-0.883-2.448-0.571-5.233,0.534-7.589c1.105-2.356,2.951-4.308,5.051-5.845c3.57-2.613,7.991-4.108,12.414-3.963
					c4.422,0.144,8.809,1.974,11.863,5.176c1.591,1.668,2.862,4.026,2.15,6.218c-0.254,0.78-0.742,1.471-0.962,2.262
					c-0.526,1.885,0.551,3.799,1.504,5.509c1.013,1.817,1.942,3.729,2.234,5.789c0.292,2.06-0.137,4.31-1.555,5.832
					c-1.643,1.762-4.415,2.402-5.534,4.535c-1.517,2.891,0.98,6.352,0.604,9.595c-0.324,2.787-3.105,5.049-5.899,4.797
					C419.978,291.594,420.273,291.094,420.311,290.186z"/>
				
					<rect x="404.406" y="272.469" transform="matrix(0.1673 -0.9859 0.9859 0.1673 68.863 637.5358)" style="fill:#B7502D;" width="14.914" height="11.062"/>
				<path style="fill:#801400;" d="M418.563,271.574l-0.814,4.796c-1.242,0.228-2.558,0.224-3.776,0.102
					c-1.671-0.163-3.302-0.567-4.906-1.038c-0.762-0.221-1.517-0.569-2.208-1.005l0.799-4.706L418.563,271.574z"/>
				<g>
					<path style="fill:#B7502D;" d="M428.972,262.449c-0.375-0.722-1.095-1.336-1.965-1.551c-0.87-0.215-1.87,0.022-2.372,0.644
						l-1.076,4.333c0.192,0.793,1.026,1.433,1.938,1.59c0.912,0.158,1.86-0.127,2.523-0.656c0.663-0.53,1.059-1.282,1.222-2.065
						C429.4,263.986,429.346,263.171,428.972,262.449z"/>
					<g>
						
							<path style="fill:none;stroke:#801400;stroke-width:0.4783;stroke-linecap:round;stroke-linejoin:round;stroke-miterlimit:10;" d="
							M426,266.135c-0.477-1.416-0.112-2.956,0.959-4.041"/>
						
							<path style="fill:none;stroke:#801400;stroke-width:0.4783;stroke-linecap:round;stroke-linejoin:round;stroke-miterlimit:10;" d="
							M426.134,263.784c0.679,0.447,1.153,1.1,1.297,1.784"/>
					</g>
				</g>
				<g>
					<path style="fill:#B7502D;" d="M401.16,257.728c0.592-0.558,1.474-0.9,2.366-0.816c0.892,0.085,1.758,0.638,2.027,1.391
						l-0.414,4.446c-0.443,0.685-1.442,1.014-2.355,0.862c-0.913-0.152-1.714-0.733-2.165-1.452
						c-0.451-0.719-0.576-1.559-0.473-2.352C400.249,259.038,400.568,258.286,401.16,257.728z"/>
					<g>
						
							<path style="fill:none;stroke:#801400;stroke-width:0.4783;stroke-linecap:round;stroke-linejoin:round;stroke-miterlimit:10;" d="
							M402.749,262.189c0.918-1.179,1.081-2.753,0.428-4.132"/>
						
							<path style="fill:none;stroke:#801400;stroke-width:0.4783;stroke-linecap:round;stroke-linejoin:round;stroke-miterlimit:10;" d="
							M403.398,259.925c-0.788,0.198-1.452,0.658-1.813,1.257"/>
					</g>
				</g>
				<path style="fill:#B7502D;" d="M426.05,261.695c1.219-7.182-2.696-13.836-8.744-14.862c-6.048-1.026-11.939,3.963-13.159,11.145
					c-0.128,0.752-0.187,1.496-0.205,2.231c0,0-0.546,3.217-0.546,3.217c-0.502,2.955,0.472,6.041,2.606,8.152
					c0.956,0.946,2.208,1.705,3.493,2.087c1.542,0.459,3.113,0.851,4.718,1.004c1.733,0.166,3.646,0.086,5.273-0.595
					c1.491-0.624,2.811-1.699,3.773-2.993c0.1-0.134,0.195-0.27,0.288-0.409c0.252-0.379,0.476-0.776,0.669-1.189
					c0.355-0.761,0.605-1.569,0.746-2.397l0.546-3.217C425.732,263.169,425.922,262.448,426.05,261.695z"/>
				<path style="fill:#B7502D;" d="M415.839,330.492l-24.119-4.094l2.035-37.671c0.235-4.342,2.654-8.004,5.962-8.756l12.211-2.777
					l11.549,6.896c2.943,1.757,4.064,6.054,2.839,10.278L415.839,330.492z"/>
				<path style="fill:#801400;" d="M392.224,317.078l-0.075,1.383c0,0,14.292,5.061,26.268,3.142l0.248-0.724
					c0,0-12.699-4.344-12.771-4.344C405.823,316.535,392.224,317.078,392.224,317.078z"/>
				<g>
					<path style="fill:#B7502D;" d="M374.477,397.677c-0.822,8.155-1.555,16.323-2.122,24.516c-0.13,1.872,1.054,3.65,2.93,4.193
						c2.16,0.626,4.419-0.618,5.045-2.778c2.424-8.359,4.656-16.746,6.796-25.147C382.906,398.428,378.689,398.22,374.477,397.677z"
						/>
				</g>
				<g>
					<path style="fill:#B7502D;" d="M409.526,397.664c0.056,1.156,0.105,2.312,0.166,3.469c0.181,3.607,0.396,7.214,0.621,10.822
						c0.269,3.609,0.476,7.216,0.799,10.827c0.164,1.834,1.562,3.388,3.463,3.671c2.228,0.331,4.302-1.207,4.633-3.435
						c0.532-3.586,0.949-7.175,1.428-10.762c0.435-3.589,0.859-7.178,1.249-10.767c0.152-1.36,0.29-2.721,0.434-4.082
						C418.057,397.336,413.792,397.47,409.526,397.664z"/>
				</g>
				<g>
					<path style="fill:#B7502D;" d="M381.635,290.588c-0.014,0.009-0.029,0.018-0.043,0.028l-6.979,4.622
						c-0.85,0.558-1.695,1.125-2.54,1.691l-26.835-37.027c-0.905-1.239-2.625-1.638-3.988-0.857
						c-1.463,0.838-1.969,2.702-1.132,4.165l25.67,44.828c1.466,2.553,4.71,3.509,7.33,2.117l0.558-0.297
						c2.466-1.31,4.928-2.625,7.367-3.979l6.82-3.744C385.579,298.389,383.463,294.588,381.635,290.588z"/>
				</g>
				<g>
					<path style="fill:#801400;" d="M438.767,320.352c0.43,0.348,0.898,0.657,1.44,0.869c2.69,1.054,5.704-0.15,6.959-2.695
						C443.946,318.085,440.956,318.217,438.767,320.352z"/>
					<path style="fill:#B7502D;" d="M460.847,283.666c0.544-1.385,0.009-2.997-1.319-3.762c-1.462-0.843-3.331-0.341-4.174,1.121
						l-13.955,24.203l-4.837-6.097c-0.178-0.227-0.362-0.449-0.542-0.675c-2.54,3.702-4.914,7.476-7.739,11.007l3.881,4.109
						c1.831,1.957,3.696,3.885,5.566,5.809l0.55,0.568c0.146,0.149,0.323,0.27,0.487,0.403c2.189-2.135,5.18-2.267,8.399-1.826
						c0.069-0.141,0.137-0.283,0.195-0.432L460.847,283.666z"/>
				</g>
				<g>
					<g>
						<path style="fill:#1B141C;" d="M409.965,420.049c0.007,0.539,0.033,1.11,0.065,1.694c0.02,0.357,0.046,0.714,0.071,1.078
							c0.039,0.513,0.085,1.032,0.13,1.532c0.098,1.103,0.208,2.135,0.305,2.973c0.13,1.181,0.227,1.967,0.227,1.967l25.763-0.019
							c0,0,0.733-0.837,0.007-1.947c-1.058-1.642-3.031-3.895-6.316-4.992c-3.603-1.207-5.777-2.798-7.237-4.388
							c-0.045-0.052-0.091-0.097-0.13-0.149c-0.441-0.48-0.805-0.974-1.136-1.447c-0.039-0.052-0.071-0.11-0.104-0.162
							c-0.169-0.253-0.318-0.5-0.467-0.74c-1.402-2.304-4.816,3.972-4.816,3.972s-4.589-3.246-5.874-2.778
							C410.036,416.797,409.926,418.212,409.965,420.049z"/>
						<path style="fill:#D5D5D1;" d="M410.534,427.324c-0.079,1.174-0.069,1.969-0.069,1.969l26.067-0.022
							c0,0,0.729-0.837-0.001-1.947H410.534z"/>
						<path style="fill:#D5D5D1;" d="M419.695,418.173l0.779,1c0.13,0.169,0.376,0.195,0.539,0.065l1.837-1.441
							c-0.441-0.48-0.805-0.974-1.136-1.447c-0.039-0.052-0.071-0.11-0.104-0.162l-1.85,1.448
							C419.591,417.765,419.558,418.011,419.695,418.173z"/>
						<g>
							<path style="fill:#D5D5D1;" d="M410.03,421.743c0.02,0.357,0.046,0.714,0.071,1.078c0.974,0.604,2.064,1.045,3.213,1.285
								c0.779,0.169,1.597,0.24,2.402,0.208c0.798-0.026,1.551-0.117,2.259-0.149c0.708-0.026,1.344,0.02,1.921,0.201
								c0.584,0.175,1.136,0.493,1.616,0.883c0.967,0.785,1.629,1.928,1.863,3.083l2.564-0.675c-0.552-1.733-1.675-3.22-3.148-4.18
								c-0.733-0.48-1.558-0.844-2.434-1.013c-0.883-0.182-1.766-0.136-2.544-0.019c-0.792,0.117-1.519,0.285-2.213,0.376
								c-0.688,0.097-1.383,0.11-2.084,0.032C412.308,422.73,411.114,422.347,410.03,421.743z"/>
						</g>
					</g>
				</g>
				<g>
					<path style="fill:#1B141C;" d="M382.719,429.173v0.02h-16.366v-1.478c0-0.184,0.007-0.368,0.02-0.552
						c0.046-0.827,0.21-1.635,0.486-2.404c0.335-0.939,0.834-1.819,1.471-2.607l4.111-5.07c0-1.307,1.057-2.364,2.364-2.364h3.553
						c0.992,0,1.872,0.611,2.213,1.537l1.767,4.072c0.105,0.25,0.19,0.506,0.243,0.762c0.007,0.033,0.013,0.059,0.02,0.092
						c0.013,0.046,0.02,0.092,0.026,0.138c0.053,0.269,0.072,0.552,0.066,0.834c-0.007,0.289-0.013,0.65-0.013,1.064
						c-0.007,0.164-0.007,0.335-0.007,0.519c0,0.401,0,0.841,0.007,1.32c0,0.637,0.007,1.346,0.02,2.108
						C382.712,427.8,382.719,428.47,382.719,429.173z"/>
					<path style="fill:#A8A8A5;" d="M371.49,427.735v1.471l11.23-0.013c0-0.703-0.005-1.373-0.014-2.01h-11.203
						C371.495,427.367,371.49,427.551,371.49,427.735z"/>
					<path style="fill:#D5D5D1;" d="M374.126,419.327h3.818c0.572,0,1.035-0.463,1.035-1.035l0,0c0-0.571-0.463-1.035-1.035-1.035
						h-3.818c-0.571,0-1.035,0.463-1.035,1.035l0,0C373.091,418.863,373.554,419.327,374.126,419.327z"/>
					<path style="fill:#D5D5D1;" d="M372.384,420.964h4.896c0.274,0,0.496-0.222,0.496-0.496l0,0c0-0.274-0.222-0.496-0.496-0.496
						h-4.896c-0.274,0-0.496,0.222-0.496,0.496l0,0C371.889,420.742,372.111,420.964,372.384,420.964z"/>
					<path style="fill:#D5D5D1;" d="M371.468,422.662h4.896c0.274,0,0.496-0.222,0.496-0.496l0,0c0-0.274-0.222-0.496-0.496-0.496
						h-4.896c-0.274,0-0.496,0.222-0.496,0.496l0,0C370.973,422.44,371.194,422.662,371.468,422.662z"/>
					<path style="fill:#D5D5D1;" d="M366.354,427.196v2.01l9.754-0.012c0.551-0.001,0.998-0.449,0.994-0.999c0-0.007,0-0.013,0-0.02
						c-0.003-0.548-0.447-0.992-0.995-0.992h-9.74C366.362,427.188,366.359,427.191,366.354,427.196z"/>
					<g>
						<path style="fill:#A8A8A5;" d="M382.692,422.152c-0.007,0.289-0.013,0.65-0.013,1.064c-0.007,0.164-0.007,0.335-0.007,0.519
							c-0.112,0.112-0.223,0.23-0.322,0.355c-0.775,0.946-1.189,2.167-1.189,3.323l-2.594-0.151c0.19-1.767,0.979-3.415,2.207-4.624
							c0.538-0.532,1.162-0.985,1.852-1.32C382.679,421.587,382.699,421.87,382.692,422.152z"/>
					</g>
				</g>
				<path style="fill:#B7502D;" d="M458.717,287.551c0,0,5.415-7.953,6.88-9.691c1.465-1.738,2.381-3.333,2.457-3.923
					c0.077-0.59-1.736-0.13-3.8,2.473c0,0,2.343-3.351,2.523-5.35c0.18-1.999-3.211,2.616-4.094,4.31c0,0,2.3-4.446,2.253-6.533
					c-0.047-2.087-3.32,3.321-4.209,5.676c0,0,1.459-4.886,1.064-6.319c-0.395-1.432-2.46,3.783-3.01,6.007
					c-0.55,2.223-1.493,2.528-1.678,2.096c-0.185-0.432-0.681-2.191-0.82-3.124c-0.087-0.583-1.018-1.91-1.404-1.112
					c-0.231,0.478-0.106,2.053-0.003,2.993c0.276,2.506,0.258,6.802-0.432,8.56c-0.691,1.758-1.039,2.432-1.039,2.432
					L458.717,287.551z"/>
				<polygon style="fill:#C47216;" points="377.123,292.799 382.643,306.568 384.698,305.321 379.085,291.554 				"/>
				<path style="fill:#9E3039;" d="M391.72,316.829c0,0,10.934,5.833,26.842,4.378l0.312-1.001
					c-9.5-0.046-18.308-0.495-27.099-4.723L391.72,316.829z"/>
				<path style="fill:#E54551;" d="M428.894,288.489c-1.383-1.749-3.033-3.269-4.889-4.504l-3.091-2.058
					c-3.174,3.934-7.376,7.122-12.099,8.923c-2.994-3.491-5.081-7.752-6.005-12.257l-2.971,0.872
					c-2.101,0.617-4.105,1.525-5.954,2.698l-14.801,9.392l5.613,13.767l7.688-4.664l-0.61,14.826
					c8.791,4.228,17.599,4.677,27.099,4.723l4.62-14.827l6.927,7.314l8.591-11.133L428.894,288.489z"/>
				<polygon style="fill:#9E3039;" points="440.493,303.469 439.014,301.559 430.423,312.692 432.003,314.361 				"/>
				<path style="fill:#9E3039;" d="M423.159,283.422c-4.17,4.67-9.44,8.44-15.28,10.67c-3.64-4.24-6.31-9.31-7.76-14.71l2.69-0.79
					c0.92,4.51,3.01,8.77,6.01,12.26c4.72-1.8,8.92-4.99,12.09-8.93L423.159,283.422z"/>
				<path style="fill:#25248C;" d="M391.72,321.207c0,0,11.182,6.165,25.555,4.334l2.823,17.29l4.917,36.446l-3.2,25.91h-12.721
					l-0.726-25.052l-4.659-31.295l-3.824-0.39l-13.814,56.737l-12.98-1.405l8.786-57.82c0.634-4.174,1.888-8.231,3.72-12.035
					L391.72,321.207z"/>
				<polygon style="fill:#181759;" points="372.345,404.061 386.893,405.876 389.174,401.78 372.583,400.225 				"/>
				<polygon style="fill:#181759;" points="423.324,407.064 408.674,406.519 407.08,402.11 423.705,403.239 				"/>
				
					<line style="fill:none;stroke:#181759;stroke-width:0.75;stroke-miterlimit:10;" x1="384.017" y1="402.579" x2="397.063" y2="347.392"/>
				<polyline style="fill:none;stroke:#181759;stroke-width:0.75;stroke-miterlimit:10;" points="405.838,348.777 410.456,379.95 
					410.918,403.965 				"/>
				<polygon style="fill:#801400;" points="373.836,404.247 385.262,405.673 384.267,409.433 373.608,406.703 				"/>
				<polygon style="fill:#801400;" points="410.03,406.569 421.255,407.064 421.035,408.936 410.198,410.093 				"/>
				<polygon style="fill:#801400;" points="440.251,303.78 432.412,313.837 434.873,316.428 441.04,304.775 				"/>
				<path style="fill:#1B141C;" d="M398.708,258.629c3.685,1.661,7.844,2.256,11.846,1.694c4.003-0.562,7.837-2.278,10.923-4.889
					c0.086,2.342,1.021,4.509,2.586,6.254c1.564,1.745,3.752,2.92,6.07,3.261c-0.626-3.29-1.871-6.545-3.143-9.643
					c-0.727-1.77-1.472-3.571-2.691-5.046c-2.467-2.985-6.634-4.212-10.484-3.795c-3.85,0.416-7.414,2.28-10.529,4.581
					c-1.248,0.921-2.455,1.933-3.35,3.201C399.041,255.513,398.543,257.087,398.708,258.629z"/>
			</g>
			<g>
				<path style="fill:#1B141C;" d="M669.812,290.852c-1.967-5.077-4.059-10.409-3.31-15.801c0.459-3.305,1.968-6.394,2.428-9.698
					c0.343-2.463,0.067-5.064-1.119-7.249c-1.186-2.186-3.354-3.898-5.821-4.21c-2.091-0.264-4.243,0.454-6.302,0.004
					c-2.087-0.455-3.727-2.025-5.629-2.995c-3.818-1.947-8.833-1.208-11.926,1.759c-3.093,2.967-4.041,7.946-2.254,11.842
					c0.947,2.064,2.593,3.902,2.763,6.166c0.198,2.631-1.64,4.915-2.649,7.352c-1.437,3.472-1.142,7.613,0.773,10.847
					c1.915,3.233,5.405,5.482,9.14,5.891l3.298,20.406c3.883,3.076,9.385,3.971,14.042,2.286c4.658-1.685,8.313-5.895,9.328-10.743
					C673.69,301.379,671.779,295.928,669.812,290.852z"/>
				<rect x="646.92" y="278.723" style="fill:#FF5754;" width="10.678" height="14.397"/>
				<path style="fill:#DA2727;" d="M646.92,278.723v4.453c2.432,0.101,8.01-0.155,10.28-4.433l-1.563-0.02H646.92z"/>
				<path style="fill:#FF5754;" d="M641.532,268.522c0-7.055,4.719-12.774,10.539-12.774c5.82,0,10.539,5.719,10.539,12.774
					c0,2.206-0.466,4.418-1.424,6.409c-0.861,1.79-2.125,3.406-3.744,4.57c-1.006,0.723-2.186,1.277-3.4,1.535
					c-0.807,0.172-1.677,0.134-2.498,0.146c-0.901,0.013-1.803,0.001-2.703-0.035c-1.047-0.042-2.154-0.093-3.155-0.436
					c-0.886-0.303-1.7-0.84-2.336-1.525c-1.095-1.178-1.699-2.758-1.699-4.365v-4.488
					C641.58,269.74,641.532,269.138,641.532,268.522z"/>
				<g>
					<path style="fill:#FF5754;" d="M660.264,268.433c0.378-0.673,1.291-1.06,2.154-0.996c0.863,0.064,1.647,0.532,2.12,1.158
						c0.473,0.626,0.656,1.394,0.627,2.141c-0.029,0.771-0.284,1.551-0.83,2.163c-0.546,0.611-1.401,1.035-2.295,1.032
						c-0.893-0.003-1.79-0.477-2.102-1.201L660.264,268.433z"/>
					<g>
						
							<path style="fill:none;stroke:#DA2727;stroke-width:0.4617;stroke-linecap:round;stroke-linejoin:round;stroke-miterlimit:10;" d="
							M662.305,272.584c-0.683-1.27-0.584-2.795,0.26-4.001"/>
						
							<path style="fill:none;stroke:#DA2727;stroke-width:0.4617;stroke-linecap:round;stroke-linejoin:round;stroke-miterlimit:10;" d="
							M662.053,270.325c0.718,0.316,1.275,0.861,1.522,1.489"/>
					</g>
				</g>
				<g>
					<path style="fill:#FF5754;" d="M629.076,394.188c-1.315-0.193-2.627-0.394-3.921-0.647l2.146,31.935
						c0.122,1.837,1.554,3.372,3.446,3.563c2.11,0.212,3.993-1.326,4.205-3.436l3.067-30.464
						C635.039,394.93,632.065,394.627,629.076,394.188z"/>
				</g>
				<g>
					<path style="fill:#FF5754;" d="M628.715,288.695c0.155-0.191,0.305-0.387,0.471-0.572c1.175-2.055,2.847-3.855,4.947-5.168
						c0.289-0.181,0.745-0.451,1.248-0.746c0.005-0.005,0.01-0.009,0.015-0.014c0.854-0.795,1.789-1.462,2.771-2.025
						c0.032-0.022,0.067-0.041,0.099-0.062c-0.093-0.121-0.183-0.243-0.276-0.364c-3.209-4.17-6.38-8.367-9.631-12.507
						l-1.597-30.578c-0.073-1.419-1.164-2.618-2.622-2.78c-1.62-0.18-3.08,0.988-3.259,2.608l-3.621,32.651
						c-0.103,0.935,0.095,1.913,0.633,2.773l0.391,0.626c3.054,4.882,6.233,9.677,9.353,14.513
						C627.991,287.602,628.355,288.147,628.715,288.695z"/>
				</g>
				<g>
					<path style="fill:#FF5754;" d="M664.864,398.523c-3.541,0-7.073,0.064-10.608,0.129c1.115,8.801,2.335,17.598,3.791,26.384
						c0.285,1.725,1.726,3.094,3.546,3.214c2.123,0.141,3.957-1.466,4.098-3.589c0.581-8.777,0.931-17.545,1.179-26.309
						C666.211,398.453,665.544,398.523,664.864,398.523z"/>
				</g>
				<g>
					<path style="fill:#FF5754;" d="M669.589,277.101c3.858,1.3,5.819,5.998,9.295,8.09c1.318-1.818,4.434-6.356,5.722-8.198
						l0.508-0.727c0.542-0.778,0.818-1.748,0.711-2.765l-3.285-31.187c-0.113-1.074-0.963-1.962-2.08-2.08
						c-1.284-0.135-2.435,0.796-2.57,2.08l-3.033,28.792C673.085,273.092,671.33,275.091,669.589,277.101z"/>
				</g>
				<path style="fill:#FF5754;" d="M640.804,335.013h21.775l4.702-35.351c0.578-4.348-1.012-8.442-3.984-9.775l-11.082-4.966
					l-12.014,5.055c-3.031,1.275-4.669,5.404-4.084,9.8L640.804,335.013z"/>
				<path style="fill:#FF5754;" d="M640.499,349.819h22.382c3.059,0,4.581-4.375,3.393-8.842l-3.698-13.908h-21.77l-3.698,13.908
					C635.919,345.444,637.44,349.819,640.499,349.819z"/>
				<g>
					<path style="fill:#1B141C;" d="M656.582,429.173v0.02h16.366v-1.478c0-0.184-0.006-0.368-0.02-0.552
						c-0.046-0.827-0.21-1.635-0.486-2.404c-0.335-0.939-0.834-1.819-1.471-2.607l-4.111-5.07c0-1.307-1.058-2.364-2.364-2.364
						h-3.553c-0.992,0-1.872,0.611-2.213,1.537l-1.766,4.072c-0.105,0.25-0.191,0.506-0.243,0.762
						c-0.007,0.033-0.013,0.059-0.02,0.092c-0.013,0.046-0.02,0.092-0.026,0.138c-0.052,0.269-0.072,0.552-0.066,0.834
						c0.007,0.289,0.013,0.65,0.013,1.064c0.007,0.164,0.007,0.335,0.007,0.519c0,0.401,0,0.841-0.007,1.32
						c0,0.637-0.007,1.346-0.02,2.108C656.589,427.8,656.582,428.47,656.582,429.173z"/>
					<path style="fill:#A8A8A5;" d="M667.811,427.735v1.471l-11.23-0.013c0-0.703,0.005-1.373,0.013-2.01h11.203
						C667.806,427.367,667.811,427.551,667.811,427.735z"/>
					<path style="fill:#D5D5D1;" d="M665.175,419.327h-3.818c-0.571,0-1.035-0.463-1.035-1.035l0,0c0-0.571,0.463-1.035,1.035-1.035
						h3.818c0.571,0,1.035,0.463,1.035,1.035l0,0C666.21,418.863,665.747,419.327,665.175,419.327z"/>
					<path style="fill:#D5D5D1;" d="M666.917,420.964h-4.896c-0.274,0-0.496-0.222-0.496-0.496l0,0c0-0.274,0.222-0.496,0.496-0.496
						h4.896c0.274,0,0.496,0.222,0.496,0.496l0,0C667.412,420.742,667.19,420.964,666.917,420.964z"/>
					<path style="fill:#D5D5D1;" d="M667.833,422.662h-4.896c-0.274,0-0.496-0.222-0.496-0.496l0,0c0-0.274,0.222-0.496,0.496-0.496
						h4.896c0.274,0,0.496,0.222,0.496,0.496l0,0C668.328,422.44,668.107,422.662,667.833,422.662z"/>
					<path style="fill:#D5D5D1;" d="M672.947,427.196v2.01l-9.754-0.012c-0.55-0.001-0.997-0.449-0.994-0.999
						c0-0.007,0-0.013,0-0.02c0.003-0.548,0.447-0.992,0.995-0.992h9.74C672.939,427.188,672.942,427.191,672.947,427.196z"/>
					<g>
						<path style="fill:#A8A8A5;" d="M656.608,422.152c0.007,0.289,0.013,0.65,0.013,1.064c0.007,0.164,0.007,0.335,0.007,0.519
							c0.112,0.112,0.223,0.23,0.322,0.355c0.775,0.946,1.189,2.167,1.189,3.323l2.594-0.151c-0.191-1.767-0.979-3.415-2.207-4.624
							c-0.538-0.532-1.162-0.985-1.852-1.32C656.622,421.587,656.602,421.87,656.608,422.152z"/>
					</g>
				</g>
				<path style="fill:#25248C;" d="M639.51,329.831h24.159l2.124,7.403c1.406,4.9,2.098,9.977,2.055,15.075l-0.435,51.629
					l-13.008,1.905l-3.784-50.78l-1.844-0.655l-11.603,37.061l-1.818,31.677l-12.123-0.978l1.537-42.397l11.935-38.092
					L639.51,329.831z"/>
				<polygon style="fill:#CC7717;" points="670.17,275.895 668.55,277.783 679.238,285.191 680.988,282.773 				"/>
				<path style="fill:#FC931D;" d="M668.55,277.783l-8.611,10.036l-1.394-0.566c-0.875,1.598-2.27,2.92-3.946,3.636
					c-1.675,0.716-3.625,0.806-5.333,0.173c-1.708-0.633-3.147-2-3.796-3.702l-0.917,0.504l-8.037-10.475l-10.71,7.922l9.622,14.527
					l3.334,32.178c0,0,9.541,4.156,26.206,0.115l2.611-30.831l11.66-16.108L668.55,277.783z"/>
				<polygon style="fill:#CC7717;" points="634.961,275.363 624.059,282.674 625.805,285.311 636.516,277.389 				"/>
				<path style="fill:#CC7717;" d="M665.14,330.152l-0.17,1.98c-16.67,4.04-26.21-0.12-26.21-0.12l-0.19-1.85
					C641.27,331.072,650.61,333.532,665.14,330.152z"/>
				<polygon style="fill:#181759;" points="653.458,406.922 668.328,405.023 669.22,399.731 652.768,402.262 				"/>
				
					<line style="fill:none;stroke:#181759;stroke-width:0.75;stroke-miterlimit:10;" x1="656.136" y1="403.326" x2="652.768" y2="354.746"/>
				
					<line style="fill:none;stroke:#181759;stroke-width:0.75;stroke-miterlimit:10;" x1="646.587" y1="353.469" x2="634.882" y2="389.566"/>
				<g>
					<path style="fill:#25248C;" d="M562.81,232.436c-1.166,0.319-1.178,1.968-0.017,2.303l5.448,1.577v-5.366L562.81,232.436z"/>
					<polygon style="fill:#FCC07B;" points="599.281,233.558 584.505,226.503 568.241,230.951 568.241,236.316 584.505,241.022 
											"/>
					
						<rect x="642.959" y="168.048" transform="matrix(-1.836970e-16 1 -1 -1.836970e-16 874.4381 -416.4569)" style="fill:#FC931D;" width="4.976" height="121.886"/>
					
						<rect x="642.959" y="177.591" transform="matrix(-1.836970e-16 1 -1 -1.836970e-16 883.9815 -406.9135)" style="fill:#FC931D;" width="4.976" height="121.886"/>
					
						<rect x="642.959" y="172.615" transform="matrix(-1.836970e-16 1 -1 -1.836970e-16 879.0053 -411.8897)" style="fill:#CC7717;" width="4.976" height="121.886"/>
					<rect x="706.39" y="226.503" style="fill:#E8E8E8;" width="3.76" height="14.52"/>
					<path style="fill:#E54551;" d="M717.791,241.022h-7.641v-14.52h7.641c4.01,0,7.26,3.25,7.26,7.26l0,0
						C725.051,237.772,721.801,241.022,717.791,241.022z"/>
				</g>
				<path style="fill:#FF5754;" d="M678.091,247.04c0,0-0.571-7.93-0.897-9.78c-0.326-1.85-0.319-3.37-0.129-3.823
					c0.19-0.454,1.295,0.628,1.69,3.344c0,0-0.285-3.367,0.416-4.871c0.701-1.504,1.21,3.202,1.138,4.779c0,0,0.201-4.132,1.1-5.604
					c0.899-1.472,0.995,3.751,0.654,5.802c0,0,0.984-4.097,1.861-4.957c0.877-0.86,0.188,3.725-0.341,5.542
					c-0.529,1.817,0.019,2.426,0.33,2.194s1.396-1.284,1.882-1.892c0.304-0.38,1.52-0.942,1.465-0.213
					c-0.033,0.438-0.776,1.511-1.24,2.14c-1.237,1.677-3.006,4.754-3.242,6.297c-0.236,1.543-0.266,2.169-0.266,2.169
					L678.091,247.04z"/>
				<polygon style="fill:#DA2727;" points="655.307,406.686 666.651,405.237 666.507,409.061 655.632,409.061 				"/>
				<path style="fill:#DA2727;" d="M634.743,275.51c0,0-10.102,6.926-10.171,6.82c-0.069-0.106-1.521-2.34-1.521-2.34l10.674-5.81
					L634.743,275.51z"/>
				<polygon style="fill:#DA2727;" points="670.471,276.086 680.714,282.599 682.308,280.305 671.435,274.981 				"/>
				<path style="fill:#1B141C;" d="M639.774,264.609c0.754,1.172,1.89,2.067,3.146,2.672c1.255,0.604,2.629,0.93,4.01,1.115
					c3.388,0.452,6.885,0.063,10.091-1.124c0.175,1.947,1.245,3.916,2.694,5.228c1.449,1.312,3.401,2.054,5.356,2.035
					c1.351-2.043,1.093-4.843,0.425-7.2c-0.668-2.357-1.999-4.462-3.333-6.517c-1.214-1.87-2.524-3.803-4.486-4.861
					c-1.748-0.943-3.805-1.076-5.79-1.146c-2.084-0.074-4.265-0.079-6.124,0.865c-1.581,0.803-2.774,2.231-3.601,3.799
					C641.335,261.043,640.264,262.905,639.774,264.609z"/>
			</g>
		</g>
		<g>
			<g>
				<g>
					<polygon style="fill:#CC7717;" points="340.802,391.343 324.471,402.908 337.857,429.222 362.377,429.222 					"/>
					<polygon style="fill:#CC7717;" points="215.333,402.908 199.001,391.343 177.426,429.222 201.947,429.222 					"/>
					<polygon style="fill:#FC931D;" points="353.111,391.343 336.78,402.908 350.166,429.222 374.686,429.222 					"/>
				</g>
				
					<ellipse transform="matrix(0.7071 -0.7071 0.7071 0.7071 -136.7272 280.6689)" style="fill:#CC7717;" cx="270.434" cy="305.379" rx="116.132" ry="116.132"/>
				
					<ellipse transform="matrix(0.7071 -0.7071 0.7071 0.7071 -133.0522 289.5412)" style="fill:#FC931D;" cx="282.981" cy="305.379" rx="116.132" ry="116.132"/>
				<circle style="fill:#F2F2F2;" cx="282.981" cy="305.379" r="103.588"/>
				<path style="fill:#CCCCCC;" d="M386.566,305.379c0,57.209-46.375,103.585-103.585,103.585c-1.276,0-2.552-0.025-3.82-0.066
					c55.439-2.017,99.765-47.585,99.765-103.519c0-55.934-44.325-101.502-99.765-103.519c1.268-0.041,2.544-0.066,3.82-0.066
					C340.19,201.794,386.566,248.169,386.566,305.379z"/>
				<polygon style="fill:#FC931D;" points="225.746,402.908 209.414,391.343 187.84,429.222 212.36,429.222 				"/>
				<g>
					
						<ellipse style="fill:none;stroke:#25248C;stroke-width:8.2328;stroke-linecap:round;stroke-linejoin:round;stroke-dasharray:0,0,0,0,0,48.0564;" cx="281.029" cy="305.379" rx="90.799" ry="92.751"/>
				</g>
				<g>
					<path style="fill:#25248C;" d="M284.018,232.607l3.079,72.772c0.096,2.273-1.669,4.194-3.942,4.29
						c-2.273,0.096-4.194-1.669-4.291-3.942c-0.005-0.114-0.004-0.236,0-0.348l3.079-72.772c0.024-0.573,0.508-1.018,1.081-0.993
						C283.567,231.637,283.994,232.075,284.018,232.607z"/>
				</g>
				<g>
					<path style="fill:#E54551;" d="M325.528,285.253l-41.829,21.608c-0.808,0.418-1.802,0.101-2.219-0.707
						c-0.417-0.808-0.101-1.802,0.707-2.219c0.024-0.012,0.053-0.026,0.078-0.038l42.902-19.391
						c0.209-0.094,0.455-0.002,0.549,0.207C325.806,284.915,325.722,285.152,325.528,285.253z"/>
				</g>
				<g>
					<path style="fill:#25248C;" d="M326.067,344.938l-45.816-36.478c-1.781-1.418-2.075-4.011-0.657-5.792
						c1.418-1.781,4.011-2.075,5.792-0.657c0.113,0.09,0.223,0.189,0.324,0.288l41.732,41.087c0.409,0.402,0.414,1.06,0.011,1.469
						C327.079,345.235,326.477,345.262,326.067,344.938z"/>
				</g>
			</g>
			<path style="fill:#D8E5FE;" d="M699.113,440.243H50.887c-3.043,0-5.511-2.467-5.511-5.511l0,0c0-3.043,2.467-5.511,5.511-5.511
				h648.227c3.043,0,5.511,2.467,5.511,5.511l0,0C704.624,437.776,702.157,440.243,699.113,440.243z"/>
			<g>
				<polygon style="fill:#CCCCCC;" points="486.574,321.207 618.468,321.207 651.54,429.293 519.647,429.293 				"/>
				<g>
					<polygon style="fill:#E8E8E8;" points="618.439,321.207 486.545,321.207 453.473,429.293 585.367,429.293 					"/>
					<polygon style="fill:#25248C;" points="618.439,321.207 486.545,321.207 481.268,338.455 613.162,338.455 					"/>
					<polygon style="fill:#FFFFFF;" points="502.667,368.656 480.234,368.656 487.098,346.224 509.53,346.224 					"/>
					<polygon style="fill:#FFFFFF;" points="533.596,368.656 511.164,368.656 518.027,346.224 540.459,346.224 					"/>
					<polygon style="fill:#FFFFFF;" points="564.525,368.656 542.093,368.656 548.957,346.224 571.389,346.224 					"/>
					<polygon style="fill:#FFFFFF;" points="595.454,368.656 573.022,368.656 579.886,346.224 602.318,346.224 					"/>
					<polygon style="fill:#FFFFFF;" points="494.33,395.9 471.898,395.9 478.762,373.468 501.194,373.468 					"/>
					<polygon style="fill:#FFFFFF;" points="525.259,395.9 502.827,395.9 509.691,373.468 532.123,373.468 					"/>
					<polygon style="fill:#FFFFFF;" points="556.189,395.9 533.757,395.9 540.62,373.468 563.053,373.468 					"/>
					<polygon style="fill:#FFFFFF;" points="587.118,395.9 564.686,395.9 571.55,373.468 593.982,373.468 					"/>
					<polygon style="fill:#FFFFFF;" points="485.994,423.145 463.562,423.145 470.426,400.713 492.858,400.713 					"/>
					<polygon style="fill:#FFFFFF;" points="516.923,423.145 494.491,423.145 501.355,400.713 523.787,400.713 					"/>
					<polygon style="fill:#FFFFFF;" points="547.852,423.145 525.42,423.145 532.284,400.713 554.716,400.713 					"/>
					<polygon style="fill:#FFFFFF;" points="578.782,423.145 556.35,423.145 563.214,400.713 585.646,400.713 					"/>
					<path style="fill:#E54551;" d="M545.957,392.685L545.957,392.685c-4.419,0-6.905-3.582-5.553-8.001v0
						c1.352-4.419,6.03-8.001,10.449-8.001l0,0c4.419,0,6.905,3.582,5.553,8.001v0C555.053,389.103,550.375,392.685,545.957,392.685
						z"/>
					
						<polyline style="fill:none;stroke:#E54551;stroke-width:1.8955;stroke-linecap:round;stroke-linejoin:round;stroke-miterlimit:10;" points="
						486.245,359.245 489.5,363.936 504.493,352.456 					"/>
					
						<polyline style="fill:none;stroke:#E54551;stroke-width:1.8955;stroke-linecap:round;stroke-linejoin:round;stroke-miterlimit:10;" points="
						501.232,412.978 504.487,417.669 519.48,406.189 					"/>
					
						<polyline style="fill:none;stroke:#E54551;stroke-width:1.8955;stroke-linecap:round;stroke-linejoin:round;stroke-miterlimit:10;" points="
						570.236,387.994 573.492,392.685 588.484,381.205 					"/>
					<g>
						
							<line style="fill:none;stroke:#25248C;stroke-width:1.8955;stroke-linecap:round;stroke-linejoin:round;stroke-miterlimit:10;" x1="551.888" y1="349.496" x2="561.998" y2="364.064"/>
						
							<line style="fill:none;stroke:#25248C;stroke-width:1.8955;stroke-linecap:round;stroke-linejoin:round;stroke-miterlimit:10;" x1="566.455" y1="349.496" x2="547.43" y2="364.064"/>
					</g>
				</g>
				<polygon style="fill:#B0B0B0;" points="618.439,321.207 604.034,429.293 585.367,429.293 				"/>
			</g>
		</g>
	</g>
</g>
</svg>
